<?xml version="1.0" encoding="utf-8"?>
<!-- Generator: Adobe Illustrator 22.1.0, SVG Export Plug-In . SVG Version: 6.00 Build 0)  -->
<svg version="1.1" id="PEOPLE" xmlns="http://www.w3.org/2000/svg" xmlns:xlink="http://www.w3.org/1999/xlink" x="0px" y="0px"
	 viewBox="0 0 56.2 31" style="enable-background:new 0 0 56.2 31;" xml:space="preserve">
<style type="text/css">
	.st0{opacity:0.9;fill:#6CDE93;}
	.st1{opacity:0.6;}
	.st2{opacity:0.7;fill:#6CDE93;}
	.st3{fill:#6CDE93;}
	.st4{fill:#777570;}
	.st5{fill:#C8C4BC;}
	.st6{fill:#ACA9A2;}
	.st7{fill:#959189;}
	.st8{fill:#02C299;}
	.st9{fill:#E7E2D8;}
	.st10{fill:#649630;}
	.st11{fill:#063325;}
	.st12{fill:#B9EAB4;}
	.st13{fill:#F7F7F7;}
	.st14{fill:#FEFEFE;}
	.st15{fill:#65C181;}
</style>
<g>
	<g>
		<path class="st15" d="M39.7,19.4c0.4-0.2,0.8-0.4,1.2-0.6c0.6-0.3,1.3-0.7,1.5-1.3c0.1-0.4,0-0.9-0.1-1.3c-0.2-1.2,0-2.5,0.4-3.7
			c0.1-0.3,0.3-0.5,0.5-0.7c0.2-0.2,0.5-0.2,0.7-0.3c1.8-0.5,3.4-1.9,4.1-3.6c-1.1,0.1-1.9,0.9-2.8,1.5c-1.6,1-3.5,1.2-5.4,1.4
			c-2,0.2-4,0.5-6,0.3c-1.3-0.1-2.6-0.4-3.8-0.1c-2.8,0.5-5.6,0.7-8.4,1.2c-1.9,0.3-3.8,0.9-5.4,1.8c-1.2,0.7-2.4,1.7-3.7,2.2
			c-0.9,0.3-2,0.4-2.9,0.9c-0.9,0.5-1.6,1.5-1.2,2.4c0.3,0.6,0.9,0.9,1.5,1.2c1.6,0.6,3.4,0.8,5.1,0.6c0.3,0,0.7-0.1,0.9,0.1
			c0.2,0.1,0.3,0.4,0.5,0.6c0.4,0.5,1.1,0.7,1.7,0.8c2.6,0.5,5.4,0.4,8-0.2c1.3-0.3,2.6-0.8,3.9-0.9c1-0.1,2,0,3-0.1
			C35.3,21.3,37.5,20.4,39.7,19.4z"/>
	</g>
</g>
</svg>
