<?xml version="1.0" encoding="utf-8"?>
<!-- Generator: Adobe Illustrator 22.1.0, SVG Export Plug-In . SVG Version: 6.00 Build 0)  -->
<svg version="1.1" id="PEOPLE" xmlns="http://www.w3.org/2000/svg" xmlns:xlink="http://www.w3.org/1999/xlink" x="0px" y="0px"
	 viewBox="0 0 70 63" style="enable-background:new 0 0 70 63;" xml:space="preserve">
<style type="text/css">
	.st0{opacity:0.9;fill:#6CDE93;}
	.st1{opacity:0.6;}
	.st2{opacity:0.7;fill:#6CDE93;}
	.st3{fill:#6CDE93;}
	.st4{fill:#777570;}
	.st5{fill:#C8C4BC;}
	.st6{fill:#ACA9A2;}
	.st7{fill:#959189;}
	.st8{fill:#02C299;}
	.st9{fill:#E7E2D8;}
	.st10{fill:#649630;}
	.st11{fill:#063325;}
	.st12{fill:#B9EAB4;}
	.st13{fill:#F7F7F7;}
	.st14{fill:#FEFEFE;}
	.st15{fill:#65C181;}
</style>
<g>
	<g>
		<path class="st10" d="M49.9,19.5c0.1-0.8,0.6-1.5,1.3-1.8s1.4-0.6,2.2-0.6s1.6-0.1,2.3-0.3c1.5-0.3,2.8-1.2,3.7-2.4
			s1.3-2.8,1.2-4.3c0,0-0.6,2.3-1.6,3.1c-1.3,1.1-2.6,2.5-4.4,2.8c-1.3,0.2-2.7-0.1-3.9,0.4c-1,0.4-1.7,1.4-2.3,2.3"/>
		<g id="qt2XC4.tif_1_">
			<g>
				<path class="st11" d="M59.7,11.8c-0.2-0.9-0.1-1.7,0.3-2.6c0.2-0.5,0.4-1,0.5-1.6c1.4,1,1.5,3.3,0.2,4.5
					C60.3,12.5,59.8,12.3,59.7,11.8z"/>
				<path class="st12" d="M22.6,43.2c0.4,0.8,0.8,1.7,1.2,2.5c-0.5,0.4-0.8,0.9-1.1,1.4c-0.4,0.6-0.8,1.1-1.1,1.8
					c-0.9-0.2-1.5-0.9-2.2-1.5c0.1-0.1,0.1-0.2,0.2-0.3C20.9,46.1,22.2,45,22.6,43.2z"/>
				<path class="st11" d="M19.4,47.3c0.7,0.6,1.3,1.2,2.2,1.5c-0.1,0.2-0.1,0.4-0.2,0.5c-0.2,0.9-0.8,1.2-1.7,0.8
					c-0.6-0.3-1-0.8-1.2-1.4c-0.1-0.3-0.1-0.6,0.2-0.8C18.9,47.7,19.2,47.5,19.4,47.3z"/>
				<path class="st12" d="M41.6,42.5c-0.4,0-0.8,0.2-1.3,0.3c-0.2,0-0.4,0.1-0.5,0c0.9-0.9,1.7-1.9,2.2-3.1c0.5-1.2,0.4-2.3,0.1-3.5
					c-0.2-0.6-0.5-0.6-0.9-0.3c-0.1,0.1-0.3,0.2-0.4,0.3c-1.7,1.5-3.4,2.8-5.2,4c-1.2,0.8-1.7,2-1.7,3.4c-0.2,0.2-0.1,0.4-0.1,0.6
					c0,0,0,0,0,0c0,0-0.1,0.1-0.1,0.1c-0.4,1.6-1.5,4.4-2.8,5.4c-1.4,1.1-2.6,2.4-3.3,4.1c-0.8-0.2-1.5-0.6-1.9-1.4
					c0.8-0.7,1.6-1.4,2.1-2.4c0.7-1.1,1.9-1.4,1.6-2.7c-0.1-0.2-0.2-0.4-0.3-0.6c0,0,0-0.1,0-0.1c0.8-0.4,1.3-1,1.5-1.9
					c0.1-0.7,0.2-1.3,0.3-2c0.1-0.7-0.2-1.3-0.9-1.6c-0.5-0.2-1-0.4-1.4-0.7c-1.7-0.9-3.1-2.1-3.6-4.1c-0.1-0.4-0.3-0.4-0.6-0.2
					c-0.6,0.4-1.1,0.9-1.4,1.6c-0.5,0.9-1,1.9-1.5,2.8c-0.4,0.7-0.8,1.2-0.6,2.1c-0.8-0.2-1.6,0.1-2.3,1c-0.6,0.8-1.1,1.6-1.8,2.3
					c-0.2,0.2-0.3,0.4-0.6,0.3c0.2-0.2,0.3-0.4,0.5-0.6c0.7-0.9,1.2-2,1.3-3.1c0.1-0.8-0.1-1-0.9-1.1c-0.7,0-1.4,0-2.1-0.1
					c-0.2,0-0.5,0-0.7,0.1c-1.1,0.4-2.1,1.8-2.1,3.1c0,1,0.9,2.3,2,2.7c0.3,0.1,0.6,0.1,0.9-0.1c0.2-0.1,0.4-0.3,0.6-0.4
					c0,0.2,0,0.3-0.1,0.4c-0.9,0.9-1.8,1.8-2.7,2.7c-0.1,0.1-0.2,0.1-0.3,0.1c-0.1-0.3-0.1-0.5-0.2-0.8c-0.2-0.5-0.4-0.6-0.8-0.2
					c-0.3,0.3-0.7,0.4-1.1,0.4c-0.2,0-0.5-0.1-0.6,0.1c-0.6-0.6-0.7-1.1-0.2-2.1c0.4-0.8,0.8-1.7,0.8-2.6c0-0.9-0.3-1.7-0.8-2.4
					c-0.7-0.9-0.6-2.1,0-3c0.4-0.6,0.8-1.2,0.9-1.9c1.3-0.4,2.6-1,4.1-0.4c0.7,0.3,2-0.4,1.6-1.6c-0.1-0.4-0.2-0.8-0.3-1.1
					c0.1-0.3,0.4-0.4,0.7-0.6c1.7-1.1,3.2-2.3,4.7-3.6c1.3,0,2.7-0.1,4,0c0.9,0.1,1.8,0.2,2.4,0.9c1.4,1.5,3.1,1.9,5.1,1.6
					c1.4-0.2,2.5-0.9,3-2.4c0.1-0.4,0.3-0.7,0.6-1.1c0.5-0.5,1-0.6,1.5-0.1c0.3,0.3,0.5,0.6,0.7,1c0.3,0.7,0.7,0.8,1.4,0.3
					c0.8-0.6,1.3-1.5,1.6-2.4c0.4-1.3,0.2-2.1-0.9-2.9c-0.5-0.3-0.5-0.8-0.2-1.2c0.2-0.3,0.5-0.6,0.7-0.9c0.1-0.1,0.3-0.3,0.1-0.4
					c-0.7-0.3-0.3-0.7-0.1-1c0.4-1.1,1.1-2.1,1.4-3.3c1.6-1,3.3-1.1,5.1-1c0.2,0,0.4,0.1,0.6,0.1c1.7,0.2,2.9,1.1,3.5,2.7
					c0.1,0.2,0.1,0.5,0.4,0.7c0.2,0.3,0.3,0.7,0.3,1.1c0.1,0.6,0.1,1.3,0.2,1.9c0.1,0.5,0,1.1,0.2,1.5c-0.2,0.4-0.2,0.8-0.2,1.3
					c0,2-0.3,4-0.5,6c-0.1,1.6-0.6,1.9-0.6,3c-0.1,0.9,0.7,1.2,1.5,1.5c0.2,0.1,0.4,0.1,0.6,0.2c1.3,0.3,2.7,0.3,4.1,0.4
					c0.1,0.9,0.2,1.7-0.7,2.3c-0.6-0.2-1.2-0.5-1.9-0.7c-0.8-0.3-1.7-0.4-2.5-0.2c-0.2,0.1-0.4,0.1-0.6,0.2
					c-0.7,0.4-3.6-1.2-3.8-2.1c-0.1-0.4-0.5-0.8-0.5-0.5c-0.1,0.3,0,0.6-0.1,0.9c-0.1,0.6-0.3,1.1-0.7,1.6c-0.2,0.2-0.5,0.3-0.5,0.6
					c0,0,0,0.1,0,0.1c-0.1,0.3,0.2,0.8-0.2,1c-0.4,0.2-0.4-0.4-0.7-0.6c-0.5-0.3-0.6,0.2-0.8,0.4C43.5,41.7,42.5,42.1,41.6,42.5z
					 M19.5,39.8c-0.4-0.6-1-1-1.6-1.3c-0.8-0.4-2.1,0.1-2.5,0.9c0.4,0.9,1.9,1.9,2.8,1.7C19,41.1,19.5,40.6,19.5,39.8z M51.4,24.7
					c-0.1-2.3-1.3-3.8-3.1-5c-0.3-0.2-0.7-0.3-1.1-0.3c-0.7,0-1,0.4-0.8,1.1c0.2,0.5,0.4,1,0.7,1.6c0.4,1,0.2,1.4-0.8,1.6
					c-0.6,0.1-1.3,0.2-1.9,0.3c-0.6,0.1-0.8,0.4-0.6,0.9c0.5,1,0.6,2,0.6,3.1c0,1.6,0.7,2.9,1.7,4.1c0.5,0.6,0.8,0.5,1.1-0.2
					c0.1-0.2,0.1-0.4,0.2-0.7c0.2-0.9,0.4-1.8,0.8-2.6c0.3-0.7,0.8-1.2,1.6-1.5C51.1,26.7,51.4,26.3,51.4,24.7z"/>
				<path class="st10" d="M42.3,18.4c-0.4,1.1-1,2.2-1.4,3.3c-0.1,0.3-0.6,0.7,0.1,1c0.2,0.1,0,0.3-0.1,0.4
					c-0.2,0.3-0.5,0.6-0.7,0.9c-0.3,0.5-0.2,0.9,0.2,1.2c1.1,0.8,1.3,1.6,0.9,2.9c-0.3,1-0.8,1.8-1.6,2.4c-0.7,0.5-1,0.4-1.4-0.3
					c-0.2-0.4-0.4-0.7-0.7-1c-0.5-0.5-1.1-0.4-1.5,0.1c-0.3,0.3-0.5,0.7-0.6,1.1c-0.4,1.5-1.5,2.2-3,2.4c-1.9,0.3-3.7-0.1-5.1-1.6
					c-0.6-0.7-1.5-0.8-2.4-0.9c-1.3-0.1-2.7,0-4,0c1.6-1.3,3.3-2.4,5.3-3c1.4-0.4,2.8-1,4.2-1.5c2.1-0.7,3.8-1.8,5.5-3.2
					c0.8-0.7,1.6-1.4,2.5-2.1C39.6,19.5,40.9,18.9,42.3,18.4z"/>
				<path class="st10" d="M20.8,42.6c-0.2-0.8,0.2-1.4,0.6-2.1c0.6-0.9,1-1.9,1.5-2.8c0.3-0.6,0.8-1.2,1.4-1.6
					c0.3-0.2,0.5-0.1,0.6,0.2c0.5,2,1.9,3.2,3.6,4.1c0.5,0.2,1,0.4,1.4,0.7c0.7,0.3,1,0.9,0.9,1.6c-0.1,0.7-0.2,1.3-0.3,2
					c-0.2,0.9-0.7,1.5-1.5,1.9c-0.3,0-0.7-0.1-1,0c-0.9,0.4-1.9,0.5-2.9,0.7c-0.8-0.5-1.6-0.9-2.4-1.4c0,0,0,0,0,0
					c0,0-0.1-0.1-0.1-0.1c-0.5-0.3-0.7-0.9-0.9-1.4C21.4,43.8,21.3,43.1,20.8,42.6z"/>
				<path class="st10" d="M15.4,46.8c-0.2,0.1-0.4,0.2-0.6,0.4c-0.3,0.2-0.6,0.2-0.9,0.1c-1.1-0.4-2-1.7-2-2.7c0-1.3,1-2.8,2.1-3.1
					c0.2-0.1,0.5-0.2,0.7-0.1c0.7,0.1,1.4,0.1,2.1,0.1c0.8,0,1,0.3,0.9,1.1c-0.1,1.2-0.6,2.2-1.3,3.1c-0.2,0.2-0.3,0.4-0.5,0.6
					C15.9,46.4,15.6,46.6,15.4,46.8z M13.9,44c0.3-0.1,0.6-0.2,0.6-0.6c0-0.2-0.2-0.3-0.3-0.3c-0.3,0.1-0.7,0.2-0.7,0.6
					C13.4,44,13.7,44,13.9,44z"/>
				<path class="st10" d="M15.7,34.3c0.1,0.4,0.2,0.8,0.3,1.1c0.4,1.2-0.9,2-1.6,1.6c-1.5-0.6-2.8,0-4.1,0.4
					c-1.4-0.4-1.5-1.5-1.8-2.7c0-0.2,0-0.5,0-0.8c0.7,0.3,1.4,0.7,2.1,0.9c1.6,0.5,3.1,0.4,4.5-0.5C15.3,34.4,15.4,34.2,15.7,34.3z"
					/>
				<path class="st11" d="M9.6,49.5c0.2-0.2,0.4-0.1,0.6-0.1c0.4,0,0.8-0.1,1.1-0.4c0.4-0.4,0.6-0.3,0.8,0.2
					c0.1,0.3,0.1,0.5,0.2,0.8C11.4,50.5,10.5,50.3,9.6,49.5z"/>
				<path class="st13" d="M22.5,45.8c0,0,0.1,0.1,0.1,0.1C22.6,45.9,22.6,45.8,22.5,45.8z"/>
				<path class="st10" d="M33.8,43.6c0-1.4,0.4-2.6,1.7-3.4c1.8-1.2,3.6-2.6,5.2-4c0.1-0.1,0.3-0.2,0.4-0.3c0.5-0.3,0.8-0.3,0.9,0.3
					c0.3,1.2,0.4,2.4-0.1,3.5c-0.5,1.2-1.3,2.2-2.2,3.1c-0.9,0.4-2,0.4-2.9,0.6c-0.6,0.1-1.2,0.2-1.7,0.2
					C34.7,43.6,34.2,43.6,33.8,43.6z"/>
				<path class="st11" d="M56.6,40.2c0.8-0.6,0.7-1.5,0.7-2.3c0.4,0,0.8,0.1,1.3,0.1c0.2,0,0.4,0.1,0.6,0.2c0.5,0.6,0.2,2.4-0.5,2.7
					c-0.2,0.1-0.4,0.1-0.5,0C57.6,40.7,57.1,40.5,56.6,40.2z"/>
				<path class="st11" d="M25.5,52.4c0.4,0.8,1.1,1.2,1.9,1.4c0,0.1,0,0.2-0.1,0.4c-0.5,1.2-1.3,1.4-2.3,0.6
					c-0.2-0.2-0.4-0.4-0.6-0.6c-0.3-0.4-0.3-0.7,0.1-1C24.9,52.9,25.2,52.7,25.5,52.4z"/>
				<path class="st14" d="M33.6,44.4c0,0,0.1-0.1,0.1-0.1C33.7,44.3,33.6,44.4,33.6,44.4z"/>
				<path class="st10" d="M51.4,24.7c0,1.5-0.3,2-1.8,2.4c-0.8,0.2-1.2,0.8-1.6,1.5c-0.4,0.8-0.6,1.7-0.8,2.6
					c-0.1,0.2-0.1,0.4-0.2,0.7c-0.3,0.7-0.6,0.8-1.1,0.2c-1-1.2-1.7-2.5-1.7-4.1c0-1.1-0.2-2.1-0.6-3.1c-0.2-0.5,0-0.8,0.6-0.9
					c0.6-0.1,1.3-0.2,1.9-0.3c1.1-0.2,1.2-0.6,0.8-1.6c-0.2-0.5-0.5-1-0.7-1.6c-0.2-0.7,0.1-1.1,0.8-1.1c0.4,0,0.8,0.1,1.1,0.3
					C50.1,20.9,51.4,22.5,51.4,24.7z"/>
				<path class="st11" d="M19.5,39.8c-0.1,0.7-0.6,1.3-1.3,1.4c-1,0.1-2.5-0.8-2.8-1.7C16.8,39.6,18.2,39.7,19.5,39.8z"/>
				<path class="st10" d="M19.5,39.8c-1.4-0.1-2.7-0.2-4.1-0.4c0.4-0.8,1.6-1.3,2.5-0.9C18.6,38.8,19.1,39.2,19.5,39.8z"/>
				<path class="st11" d="M13.9,44c-0.2,0-0.5,0-0.5-0.2c0-0.4,0.4-0.5,0.7-0.6c0.2-0.1,0.4,0.1,0.3,0.3C14.5,43.8,14.3,44,13.9,44z
					"/>
			</g>
		</g>
	</g>
</g>
</svg>
