<?xml version="1.0" encoding="utf-8"?>
<!-- Generator: Adobe Illustrator 22.1.0, SVG Export Plug-In . SVG Version: 6.00 Build 0)  -->
<svg version="1.1" id="Layer_1" xmlns="http://www.w3.org/2000/svg" xmlns:xlink="http://www.w3.org/1999/xlink" x="0px" y="0px"
	 viewBox="0 0 150 150" style="enable-background:new 0 0 150 150;" xml:space="preserve">
<style type="text/css">
	.st0{fill:#6DDE94;}
	.st1{fill:none;stroke:#2C2C2C;stroke-miterlimit:10;}
</style>
<path class="st0" d="M14.1,75L14.1,75c0,21.7,11.6,41.8,30.4,52.7l0,0c18.8,10.9,42,10.9,60.9,0l0,0c18.8-10.9,30.4-31,30.4-52.7v0
	c0-21.7-11.6-41.8-30.4-52.7l0,0c-18.8-10.9-42-10.9-60.9,0l0,0C25.7,33.2,14.1,53.3,14.1,75z"/>
<path class="st1" d="M57.8,101.9V47.2c0-1.9,2.2-3,3.7-1.9l41.1,27.4c1.2,0.9,1.2,2.8,0,3.7l-41.1,27.4
	C60,104.9,57.8,103.8,57.8,101.9z"/>
</svg>
