<?xml version="1.0" encoding="utf-8"?>
<!-- Generator: Adobe Illustrator 22.1.0, SVG Export Plug-In . SVG Version: 6.00 Build 0)  -->
<svg version="1.1" id="Layer_1" xmlns="http://www.w3.org/2000/svg" xmlns:xlink="http://www.w3.org/1999/xlink" x="0px" y="0px"
	 viewBox="0 0 477 477" style="enable-background:new 0 0 477 477;" xml:space="preserve">
<style type="text/css">
	.st0{fill:#CE6669;}
	.st1{fill:#EAB560;}
	.st2{fill:#8D5C9F;}
	.st3{fill:#75C984;}
	.st4{fill:#48A3A8;}
	.st5{fill:#55A060;}
	.st6{fill:#6CDE93;}
	.st7{fill:#FFFFFF;}
</style>
<g>
	<g>
		<path class="st0" d="M130.1,98.5L83.4,57.3c-16.3,13.9-30.7,30-42.7,47.9l52.8,31.7C103.7,122.3,116.1,109.4,130.1,98.5z"/>
	</g>
	<g>
		<path class="st1" d="M172.2,74.3l-24.4-56.4c-23.6,9.7-45.3,23.1-64.4,39.5l46.7,41.2C142.9,88.6,157,80.4,172.2,74.3z"/>
	</g>
	<g>
		<path class="st2" d="M93.6,137.3l-52.5-32.3C27.4,124.9,16.6,147,9.4,170.6l60.2,13.5C75.3,167.3,83.4,151.5,93.6,137.3z"/>
	</g>
	<g>
		<path class="st3" d="M238.5,0c-32.1,0-62.7,6.4-90.7,17.9l24.4,56.4c20.5-8.3,42.8-12.8,66.3-12.8c97.8,0,177,79.3,177,177
			s-79.3,177-177,177c-3.1,0-6.2-0.1-9.3-0.2v61.5c3.1,0.1,6.2,0.2,9.3,0.2C370.2,477,477,370.2,477,238.5S370.2,0,238.5,0z"/>
	</g>
	<g>
		<path class="st4" d="M61.5,238.5c0-19,3-37.4,8.6-54.5L9.7,171.1c-6.3,21.4-9.7,44-9.7,67.4c0,128.6,101.8,233.4,229.2,238.3
			v-61.5C135.8,410.5,61.5,333.2,61.5,238.5z"/>
	</g>
</g>
</svg>
