<?xml version="1.0" encoding="utf-8"?>
<!-- Generator: Adobe Illustrator 22.1.0, SVG Export Plug-In . SVG Version: 6.00 Build 0)  -->
<svg version="1.1" id="Layer_1" xmlns="http://www.w3.org/2000/svg" xmlns:xlink="http://www.w3.org/1999/xlink" x="0px" y="0px"
	 viewBox="0 0 492.3 491.5" style="enable-background:new 0 0 492.3 491.5;" xml:space="preserve">
<style type="text/css">
	.st0{fill:#CE6669;}
	.st1{fill:#EAB560;}
	.st2{fill:#8D5C9F;}
	.st3{fill:#75C984;}
	.st4{fill:#48A3A8;}
	.st5{fill:#55A060;}
	.st6{fill:#6CDE93;}
	.st7{fill:#FFFFFF;}
</style>
<g>
	<g>
		<g>
			<g>
				<g>
					<path class="st5" d="M246.5,245.8L170.6,12c25.8-8.4,48.8-12,75.9-12V245.8z"/>
				</g>
			</g>
		</g>
		<g>
			<g>
				<g>
					<path class="st0" d="M246.5,245.8L66.8,78.2C96.4,46.4,129.3,25.4,170.6,12L246.5,245.8z"/>
				</g>
			</g>
		</g>
		<g>
			<g>
				<g>
					<path class="st1" d="M246.5,245.8L12.8,321.7c-28.5-87.8-9-176,54-243.5L246.5,245.8z"/>
				</g>
			</g>
		</g>
		<g>
			<g>
				<g>
					<path class="st2" d="M246.5,245.8v245.8C138,491.5,46.4,425,12.8,321.7L246.5,245.8z"/>
				</g>
			</g>
		</g>
		<g>
			<g>
				<g>
					<path class="st4" d="M246.5,245.8l233.7,75.9C446.7,425,355.1,491.5,246.5,491.5V245.8z"/>
				</g>
			</g>
		</g>
		<g>
			<g>
				<g>
					<path class="st6" d="M246.5,245.8V0c135.7,0,245.8,110,245.8,245.8c0,27.1-3.6,50.1-12,75.9L246.5,245.8z"/>
				</g>
			</g>
		</g>
	</g>
</g>
<circle class="st7" cx="246.5" cy="245.8" r="175.1"/>
</svg>
