<?xml version="1.0" encoding="utf-8"?>
<!-- Generator: Adobe Illustrator 22.1.0, SVG Export Plug-In . SVG Version: 6.00 Build 0)  -->
<svg version="1.1" id="Layer_8" xmlns="http://www.w3.org/2000/svg" xmlns:xlink="http://www.w3.org/1999/xlink" x="0px" y="0px"
	 viewBox="0 0 621.9 697.7" style="enable-background:new 0 0 621.9 697.7;" xml:space="preserve">
<style type="text/css">
	.st0{fill:#282828;}
</style>
<path class="st0" d="M588.9,150.3L343.9,8.8c-20.4-11.8-45.5-11.8-65.9,0L33,150.3c-20.4,11.8-33,33.6-33,57.1v282.9
	c0,23.6,12.6,45.3,33,57.1l245,141.5c20.4,11.8,45.5,11.8,65.9,0l245-141.5c20.4-11.8,33-33.6,33-57.1V207.4
	C621.9,183.8,609.3,162.1,588.9,150.3z M87.1,188.9L284.4,75c16.4-9.5,36.7-9.5,53.1,0l49.2,28.4l-78.1,45.1
	c-1.4,0.8-2.2,2.3-2.2,3.9s0.9,3.1,2.2,3.9l163.4,94.3l-53.3,30.8L396,294.5l-167.9-96.9c-0.7-0.4-1.5-0.6-2.2-0.6s-1.6,0.2-2.2,0.6
	l-82.8,47.8L70,204.6C74.4,198.3,80.2,192.9,87.1,188.9z M395.8,108.6l139.1,80.3c6.9,4,12.6,9.3,17,15.6l-70.8,40.9l-161.2-93
	L395.8,108.6z M225.9,206.7l161.2,93L311,343.7l-161.2-93L225.9,206.7z M284.4,622.7L87.1,508.8c-16.4-9.5-26.6-27-26.6-46v-56.9
	l163.1,94.2c0.7,0.4,1.5,0.6,2.2,0.6c1.6,0,3.1-0.8,3.9-2.3c1.2-2.2,0.5-4.9-1.6-6.1L60.5,395.5V234.9c0-7.9,1.8-15.6,5-22.6
	l157.2,90.7l83.8,48.4v87.8L143,345c-2.2-1.2-4.9-0.5-6.1,1.6c-1.2,2.2-0.5,4.9,1.6,6.1l167.9,96.9v179.9
	C298.8,629,291.3,626.7,284.4,622.7z M315.5,351.5l161.2-93v188.7c0,2.5,2,4.5,4.5,4.5s4.5-2,4.5-4.5V253.2l70.8-40.9
	c3.3,6.9,5,14.6,5,22.6v227.9c0,19-10.1,36.5-26.6,46l-134.3,77.6V398c0-2.5-2-4.5-4.5-4.5s-4.5,2-4.5,4.5v193.6l-54,31.2
	c-6.9,4-14.4,6.3-22.1,6.9V351.5z"/>
</svg>
