<svg id="Layer_1" data-name="Layer 1" xmlns="http://www.w3.org/2000/svg" viewBox="0 0 290.81 290.81"><defs><style>.cls-1{fill:#efefef;}.cls-2{fill:#6dde94;}.cls-3{fill:#1d1e1c;}</style></defs><title>tech_icon</title><path class="cls-1" d="M26.42,88.57V202.24A20.55,20.55,0,0,0,36.69,220l98.44,56.83a20.54,20.54,0,0,0,20.54,0L254.11,220a20.53,20.53,0,0,0,10.27-17.79V88.57a20.53,20.53,0,0,0-10.27-17.79L155.67,14a20.54,20.54,0,0,0-20.54,0L36.69,70.78A20.55,20.55,0,0,0,26.42,88.57Z"/><rect class="cls-2" x="89.44" y="107.15" width="111.94" height="58.85" rx="8.26" ry="8.26"/><path class="cls-3" d="M195.73,80H95.08a32.63,32.63,0,0,0-32.59,32.59v65.65a32.63,32.63,0,0,0,32.59,32.59H195.73a32.63,32.63,0,0,0,32.59-32.59V112.58A32.63,32.63,0,0,0,195.73,80Zm25.48,98.24a25.51,25.51,0,0,1-25.48,25.48H95.08a25.52,25.52,0,0,1-25.49-25.48V112.58A25.52,25.52,0,0,1,95.08,87.1H195.73a25.51,25.51,0,0,1,25.48,25.48Z"/><path class="cls-3" d="M195.73,95.09H95.08a17.51,17.51,0,0,0-17.49,17.49v48a17.51,17.51,0,0,0,17.49,17.48H195.73a17.51,17.51,0,0,0,17.49-17.48v-48A17.51,17.51,0,0,0,195.73,95.09Zm12.16,65.48a12.17,12.17,0,0,1-12.16,12.15H95.08a12.17,12.17,0,0,1-12.16-12.15v-48a12.17,12.17,0,0,1,12.16-12.16H195.73a12.18,12.18,0,0,1,12.16,12.16Z"/><path class="cls-3" d="M145.4,184.76a7.11,7.11,0,1,0,7.11,7.11A7.1,7.1,0,0,0,145.4,184.76Z"/><path class="cls-3" d="M146.89,123.21a1.78,1.78,0,0,0-2.5.25l-17.19,21a1.78,1.78,0,0,0,.25,2.5,1.65,1.65,0,0,0,.73.35,1.76,1.76,0,0,0,1.77-.6l17.18-21A1.78,1.78,0,0,0,146.89,123.21Z"/><path class="cls-3" d="M158.21,132.37a1.78,1.78,0,0,0-2.5.25l-6.15,7.51a1.77,1.77,0,0,0,.24,2.5,1.82,1.82,0,0,0,.74.36,1.77,1.77,0,0,0,1.76-.61l6.16-7.51A1.78,1.78,0,0,0,158.21,132.37Z"/></svg>