<svg id="Layer_1" data-name="Layer 1" xmlns="http://www.w3.org/2000/svg" viewBox="0 0 290.81 290.81"><defs><style>.cls-1{fill:#efefef;}.cls-2{fill:#6dde94;}.cls-3{fill:#1d1e1c;}</style></defs><title>tech_icon</title><path class="cls-1" d="M26.42,88.57V202.24A20.55,20.55,0,0,0,36.69,220l98.44,56.83a20.54,20.54,0,0,0,20.54,0L254.11,220a20.53,20.53,0,0,0,10.27-17.79V88.57a20.53,20.53,0,0,0-10.27-17.79L155.67,14a20.54,20.54,0,0,0-20.54,0L36.69,70.78A20.55,20.55,0,0,0,26.42,88.57Z"/><polygon class="cls-2" points="99.24 118.75 99.24 172.06 145.4 198.71 191.57 172.06 191.57 118.75 145.4 92.1 99.24 118.75"/><path class="cls-3" d="M222.85,109.72a14.78,14.78,0,0,0-25.14-10.56l-38.09-22a14.81,14.81,0,1,0-28.43,0l-38.09,22a14.79,14.79,0,1,0-13.9,24.92v43a14.79,14.79,0,1,0,14.15,24.67l37.84,21.85a15,15,0,0,0-.59,4.1,14.81,14.81,0,0,0,29.61,0,15,15,0,0,0-.59-4.1l37.84-21.85a14.79,14.79,0,1,0,14.15-24.67v-43A14.82,14.82,0,0,0,222.85,109.72Zm-66.8-26.4L194,105.2a14.64,14.64,0,0,0-.14,8.55l-37,21.35a14.79,14.79,0,0,0-7.35-4.12L149,87.41A14.75,14.75,0,0,0,156.05,83.32Zm-2.18,62.08a7.69,7.69,0,1,1-7.69-7.69A7.71,7.71,0,0,1,153.87,145.4Zm-8.47-80a7.7,7.7,0,1,1-7.69,7.69A7.7,7.7,0,0,1,145.4,65.37ZM134.75,83.32a14.8,14.8,0,0,0,7.12,4.1l.47,43.71a14.73,14.73,0,0,0-7,4.19L97,113.73a14.47,14.47,0,0,0-.15-8.53Zm-59.69,26.4a7.7,7.7,0,1,1,7.7,7.7h0A7.71,7.71,0,0,1,75.06,109.72Zm7.69,79.45a7.7,7.7,0,1,1,7.7-7.69A7.7,7.7,0,0,1,82.75,189.17Zm3.56-22v-43a14.73,14.73,0,0,0,7.16-4.18l38.44,21.63a15,15,0,0,0-.53,3.87,14.59,14.59,0,0,0,.55,3.94l-38.51,21.9A14.84,14.84,0,0,0,86.31,167.12Zm48.44,40.37L96.94,185.66a14.48,14.48,0,0,0,.62-4.18A14.85,14.85,0,0,0,97,177.4l38.45-21.87a14.71,14.71,0,0,0,6.92,4.15l-.47,43.71A14.8,14.8,0,0,0,134.75,207.49Zm10.65,17.95a7.7,7.7,0,1,1,7.7-7.7A7.71,7.71,0,0,1,145.4,225.44Zm10.65-17.95A14.75,14.75,0,0,0,149,203.4l.46-43.57a14.77,14.77,0,0,0,7.3-4.08l37.1,21.63a14.55,14.55,0,0,0-.59,4.09,14.84,14.84,0,0,0,.61,4.19Zm41.35-36.27-37-21.59a14.77,14.77,0,0,0,.62-4.23,15,15,0,0,0-.6-4.16l37-21.32a14.75,14.75,0,0,0,7.15,4.16v43A14.82,14.82,0,0,0,197.4,171.22Zm18.35,10.25a7.7,7.7,0,1,1-7.71-7.69h0A7.71,7.71,0,0,1,215.75,181.47Zm-7.69-64h0a7.7,7.7,0,1,1,7.7-7.7A7.71,7.71,0,0,1,208.05,117.42Z"/></svg>