<svg id="Layer_1" data-name="Layer 1" xmlns="http://www.w3.org/2000/svg" viewBox="0 0 290.81 290.81"><defs><style>.cls-1{fill:#efefef;}.cls-2{fill:#1d1e1c;}.cls-3{fill:#6dde94;}</style></defs><title>tech_icon</title><path class="cls-1" d="M26.42,88.57V202.24A20.55,20.55,0,0,0,36.69,220l98.44,56.83a20.54,20.54,0,0,0,20.54,0L254.11,220a20.53,20.53,0,0,0,10.27-17.79V88.57a20.53,20.53,0,0,0-10.27-17.79L155.67,14a20.54,20.54,0,0,0-20.54,0L36.69,70.78A20.55,20.55,0,0,0,26.42,88.57Z"/><path class="cls-2" d="M61.82,121.54H82.47a3.56,3.56,0,0,0,0-7.11H61.82a3.56,3.56,0,1,0,0,7.11Z"/><path class="cls-2" d="M61.82,149H82.47a3.56,3.56,0,0,0,0-7.11H61.82a3.56,3.56,0,1,0,0,7.11Z"/><path class="cls-2" d="M61.82,176.38H82.47a3.56,3.56,0,0,0,0-7.11H61.82a3.56,3.56,0,1,0,0,7.11Z"/><path class="cls-2" d="M229,114.43H208.34a3.56,3.56,0,0,0,0,7.11H229a3.56,3.56,0,0,0,0-7.11Z"/><path class="cls-2" d="M229,141.85H208.34a3.56,3.56,0,0,0,0,7.11H229a3.56,3.56,0,0,0,0-7.11Z"/><path class="cls-2" d="M229,169.27H208.34a3.56,3.56,0,0,0,0,7.11H229a3.56,3.56,0,0,0,0-7.11Z"/><path class="cls-2" d="M114.43,208.34V229a3.56,3.56,0,0,0,7.11,0V208.34a3.56,3.56,0,0,0-7.11,0Z"/><path class="cls-2" d="M141.85,208.34V229a3.56,3.56,0,0,0,7.11,0V208.34a3.56,3.56,0,0,0-7.11,0Z"/><path class="cls-2" d="M169.27,208.34V229a3.55,3.55,0,0,0,7.1,0V208.34a3.55,3.55,0,0,0-7.1,0Z"/><path class="cls-2" d="M121.54,82.47V61.82a3.56,3.56,0,1,0-7.11,0V82.47a3.56,3.56,0,0,0,7.11,0Z"/><path class="cls-2" d="M149,82.47V61.82a3.56,3.56,0,1,0-7.11,0V82.47a3.56,3.56,0,0,0,7.11,0Z"/><path class="cls-2" d="M176.37,82.47V61.82a3.55,3.55,0,1,0-7.1,0V82.47a3.55,3.55,0,0,0,7.1,0Z"/><path class="cls-2" d="M197.1,177V113.86A20.18,20.18,0,0,0,177,93.7H113.86A20.18,20.18,0,0,0,93.7,113.86V177a20.18,20.18,0,0,0,20.16,20.15H177A20.17,20.17,0,0,0,197.1,177Zm-96.29,0V113.86a13.06,13.06,0,0,1,13-13H177a13.07,13.07,0,0,1,13.05,13V177A13.07,13.07,0,0,1,177,190H113.86A13.07,13.07,0,0,1,100.81,177Z"/><rect class="cls-3" x="108.84" y="108.84" width="73.12" height="73.12" rx="9.87" ry="9.87"/></svg>