<svg id="Layer_1" data-name="Layer 1" xmlns="http://www.w3.org/2000/svg" viewBox="0 0 290.81 290.81"><defs><style>.cls-1{fill:#efefef;}.cls-2{fill:#6dde94;}.cls-3{fill:#1d1e1c;}</style></defs><title>tech_icon</title><path class="cls-1" d="M26.42,88.57V202.24A20.55,20.55,0,0,0,36.69,220l98.44,56.83a20.54,20.54,0,0,0,20.54,0L254.11,220a20.53,20.53,0,0,0,10.27-17.79V88.57a20.53,20.53,0,0,0-10.27-17.79L155.67,14a20.54,20.54,0,0,0-20.54,0L36.69,70.78A20.55,20.55,0,0,0,26.42,88.57Z"/><path class="cls-2" d="M84.87,124.39H205.94a0,0,0,0,1,0,0v30.89a60.53,60.53,0,0,1-60.53,60.53h0a60.53,60.53,0,0,1-60.53-60.53V124.39A0,0,0,0,1,84.87,124.39Z"/><path class="cls-3" d="M145.4,233.11a77.82,77.82,0,0,0,77.74-77.74v-44a3.55,3.55,0,0,0-3.55-3.55H112.73V97.48a32.68,32.68,0,1,1,65.35,0,3.56,3.56,0,0,0,7.11,0,39.79,39.79,0,0,0-79.57,0v10.35H71.22a3.56,3.56,0,0,0-3.56,3.55v44A77.83,77.83,0,0,0,145.4,233.11ZM74.77,114.93H216v40.44a70.64,70.64,0,0,1-141.27,0Z"/><path class="cls-3" d="M169.29,213.94a3.54,3.54,0,0,0,1.41-.3,64.14,64.14,0,0,0,33.91-35.25,3.55,3.55,0,1,0-6.62-2.58,57,57,0,0,1-30.12,31.31,3.56,3.56,0,0,0,1.42,6.82Z"/><path class="cls-3" d="M130.26,191.16h30.29a3.56,3.56,0,0,0,3.5-4.2c-.78-4.22-1.83-8.44-2.83-12.52-2-8.21-4-16-4-23.91a11.86,11.86,0,1,0-23.71,0c0,7.74-1.93,15.57-4,23.85-1,4.11-2,8.36-2.83,12.58a3.55,3.55,0,0,0,3.5,4.2Zm6.23-15.09c2-8.32,4.16-16.94,4.16-25.54a4.76,4.76,0,0,1,9.51,0c0,8.81,2.11,17.36,4.16,25.62.64,2.6,1.3,5.25,1.88,7.9H134.61C135.19,181.38,135.85,178.7,136.49,176.07Z"/></svg>