<svg xmlns="http://www.w3.org/2000/svg" viewBox="0 0 1142 1020"><defs><style>.cls-1{isolation:isolate;}.cls-2{fill:#c8c4bc;}.cls-3{fill:#929da4;}.cls-4{fill:#e7e2d8;}.cls-5{fill:#d2cec6;}.cls-6{fill:#e79146;}.cls-7{fill:#f3b34e;}.cls-8{fill:#dc5e67;}.cls-9{fill:#f2c940;}.cls-10{fill:#02808f;}.cls-11{fill:#00a795;}.cls-12{fill:#6adc91;}.cls-13{fill:#02c299;}.cls-14{fill:#7ff3a2;}.cls-15{fill:#ae865a;}.cls-16{fill:#daaa71;}.cls-17{fill:#ee767a;}.cls-18{fill:#b13f52;}.cls-19{fill:#83e1f6;}.cls-20{opacity:0.7;}.cls-21{fill:#bcf5ff;}.cls-22{fill:#69b2d0;}.cls-23{fill:#457b9c;}.cls-24{fill:#71c6da;}.cls-25{opacity:0.5;}.cls-25,.cls-29{mix-blend-mode:multiply;}.cls-26{fill:#fff;}.cls-27{fill:#eaeaea;}.cls-28{fill:#6bdc91;}.cls-29{opacity:0.16;}.cls-30{fill:#555b5e;}.cls-31{fill:#f2b394;}.cls-32{fill:#e5eaef;}.cls-33{fill:#dd9d80;}.cls-34{fill:#4d5254;}.cls-35{fill:#876659;}.cls-36{fill:#bd8470;}.cls-37{fill:#51504e;}.cls-38{fill:#128078;}.cls-39{fill:#b17f5d;}.cls-40{fill:#777570;}.cls-41{fill:#aca9a2;}.cls-42{fill:#ffca57;}</style></defs><title>about_illustration</title><g class="cls-1"><g id="Layer_1" data-name="Layer 1"><g class="cls-1"><polygon class="cls-2" points="1115.42 643.51 517.89 990.67 517.89 943.73 1115.42 596.57 1115.42 643.51"/></g><g class="cls-1"><polygon class="cls-3" points="517.89 990.67 26.58 706.33 26.58 659.39 517.89 943.73 517.89 990.67"/></g><g class="cls-1"><polygon class="cls-4" points="1115.42 596.57 517.89 943.73 26.58 659.39 623.65 312.23 1115.42 596.57"/></g><polygon class="cls-5" points="1019.6 586.04 933.01 637.79 877.34 603.98 941.73 568.28 997.93 573.45 1019.6 586.04"/><polyline class="cls-6" points="1007.68 495.18 1019.6 586.04 965.55 554.64 953.64 463.77"/><polygon class="cls-7" points="941.73 568.28 953.64 463.77 1007.68 495.18 995.77 599.68 941.73 568.28"/><polygon class="cls-8" points="968.57 577.01 969.11 573.45 991.95 586.72 991.41 590.28 968.57 577.01"/><polygon class="cls-8" points="980.26 577.01 980.81 573.45 992.98 580.58 992.43 584.13 980.26 577.01"/><polygon class="cls-8" points="965.59 487.17 966.87 478.82 995.44 495.55 994.16 503.9 965.59 487.17"/><polygon class="cls-9" points="953.35 465.51 953.64 463.77 1007.68 495.18 1007.39 496.92 953.35 465.51"/><ellipse class="cls-8" cx="956.82" cy="558.85" rx="7.69" ry="7.02" transform="translate(-136.4 378.04) rotate(-20.9)"/><path class="cls-9" d="M999.59,515.39l-6-1.84-.61-7.5-5.59,3.55-4.5-9.08-6.1,6.12-2.08-8.35-6,4.88-2.43-9.25-3.71,6.6-6.89-8.06,3.18,11.43-6.89-.83,4.81,9.41-6.93.8,3.75,4.77-4.41,2.78,5.56,4.09s-5.17,7.44-4.9,7.44,6-1.44,6-1.44l-6.62,5.79,5,2.12-6.45,6.92,7-.93-4.11,8.05,9.55-6.33-3.41,12.32,9.9-6,3.71,15.67s4.31-11.26,4.28-10.73,5.55,9.54,5.55,9.54l.25-7.16s12,7.83,11.44,7.16-6.41-12.06-6.41-12.06l8.48,2L988.51,550l7.26-2.5-5.2-10.78h9.55l-7.14-7,8.46-7.3-5.2-2.27Z"/><path class="cls-10" d="M986.1,510.58,985,516.27l-13.76-2.38v-6.18l3.12-1.66S976.33,511.28,986.1,510.58Z"/><path class="cls-11" d="M986.1,510.58a6.64,6.64,0,0,1-9.06,2.26c-6-3-2.64-6.79-2.64-6.79l-8.66-1.59-13,7.95,5,8.84,5.25-5L955.92,543l25.64,13.12,4.09-30.25,2,8.53L998.06,532l-6.31-17.27Z"/><ellipse class="cls-2" cx="175.34" cy="661.88" rx="40.82" ry="15.83"/><path class="cls-12" d="M139.11,641.06c.29-5.12,3.68-9.73,7.38-13.41,5.26-5.22,12.71-10.42,13.1-18.56s-7.57-12.67-8.45-20.31c-.85-7.44,5.62-13.2,9-19.09,1.59-2.75,2.62-6,1.74-9.09-1.26-4.4-5.45-7-6.15-11.75-1.51-10.07,8.75-17.82,17.74-19.22,7.55-1.18,18.71,1.57,21.21,9.69s.81,16.14-1.95,23.87c-1.82,5.09-4.35,10.09-3.89,15.62.73,8.75,6.94,14.31,13,19.84a11.62,11.62,0,0,1,3.73,5.53c1.62,6.64-4.87,13-6.76,18.93a8.79,8.79,0,0,0-.41,4.62c.68,2.93,3.12,4.92,5.34,6.75,4.18,3.45,9.19,9.28,7.08,15.19-2,5.74-9,8.43-14.21,10.44a51.64,51.64,0,0,1-19.46,3.64c-11.07-.21-23.28-2.83-31.94-10.2-3.3-2.81-5.88-6.74-6.12-11.07A11.21,11.21,0,0,1,139.11,641.06Z"/><path class="cls-13" d="M205.64,655.82a38.81,38.81,0,0,1-10.29,2,103.83,103.83,0,0,1-18.15-.3c-4.7-.5-11-3-14.15-6.94a9.44,9.44,0,0,1-1.94-5.87c0-5,3-9.29,5.44-13.46,4.51-7.77,7.53-17.39,4.06-25.68-3-7.21-10.73-13.2-9.43-20.92,1.06-6.33,4.08-9.93,7.65-15.27a17.58,17.58,0,0,0-1.19-20.56A14.25,14.25,0,0,1,164.9,538c.6-3.6,4.07-6.13,7.06-7.79l.72-.38c-8.78,1.72-18.4,9.29-16.93,19.06.7,4.71,4.89,7.35,6.16,11.75.87,3-.16,6.34-1.75,9.09-3.4,5.89-9.87,11.65-9,19.09.88,7.64,8.85,12.2,8.45,20.31s-7.84,13.34-13.1,18.56c-3.7,3.68-7.09,8.29-7.38,13.41a11.21,11.21,0,0,0,0,1.42c.24,4.33,2.82,8.26,6.12,11.07,8.66,7.37,20.87,10,31.94,10.2C185.94,663.92,197.89,661.38,205.64,655.82Z"/><path class="cls-11" d="M175.34,659.72a1.31,1.31,0,0,1-1.31-1.3v-112a1.31,1.31,0,1,1,2.61,0v112A1.3,1.3,0,0,1,175.34,659.72Z"/><path class="cls-11" d="M175.34,646.31a1.32,1.32,0,0,1-.83-.3l-17-13.83a1.3,1.3,0,1,1,1.64-2L176.16,644a1.31,1.31,0,0,1-.82,2.32Z"/><path class="cls-11" d="M175.34,621.55a1.31,1.31,0,0,1-.76-2.37l16.64-11.78a1.31,1.31,0,1,1,1.51,2.13l-16.64,11.78A1.31,1.31,0,0,1,175.34,621.55Z"/><path class="cls-11" d="M175.38,571.06a1.3,1.3,0,0,1-.92-2.22l8.53-8.53a1.3,1.3,0,1,1,1.84,1.85l-8.52,8.52A1.29,1.29,0,0,1,175.38,571.06Z"/><path class="cls-11" d="M175.34,590.29a1.33,1.33,0,0,1-.8-.27l-7.47-5.76a1.3,1.3,0,1,1,1.59-2.06l7.47,5.75a1.31,1.31,0,0,1-.79,2.34Z"/><path class="cls-14" d="M186.22,541.65c.23.22.54.45.85.35a5.14,5.14,0,0,0-1.18-3.7c-.7-.91-2.2-2.64-3.35-2.76C182.2,537.64,184.87,540.37,186.22,541.65Z"/><path class="cls-14" d="M194.6,601.72c.57-.11,1.29-.37,1.27-1s-.51-.73-1-.86a6.34,6.34,0,0,0-3.56.05c-.69.22-3.17,1.33-3.11,2.28C188.34,603.9,193.71,601.89,194.6,601.72Z"/><path class="cls-14" d="M186.62,591.86a.74.74,0,0,0-.05-.83,1.11,1.11,0,0,0-.47-.39,2.26,2.26,0,0,0-1.49.11c-.74.26-2.77.92-1.66,2C183.7,593.51,185.7,592.07,186.62,591.86Z"/><path class="cls-14" d="M203.09,644.23a2.25,2.25,0,0,0-.93-1.84c-1.2-1-5.8-2-4.84.85C197.9,645,203,645.59,203.09,644.23Z"/><path class="cls-14" d="M199.85,636.45a.64.64,0,0,0,.41,0,.44.44,0,0,0,.18-.22,1.24,1.24,0,0,0-.45-1.41,3.42,3.42,0,0,0-1.47-.56c-.75-.16-5.31-.51-4.59,1.32C194.34,636.63,198.89,636.18,199.85,636.45Z"/><path class="cls-14" d="M186.9,552.27c.2.3.64.3,1,.23a6.53,6.53,0,0,0,3.69-2.1c-1.31-.58-2.79.24-4,1.06a1.78,1.78,0,0,0-.61.61.59.59,0,0,0,.17.76"/><path class="cls-14" d="M184.87,598.94c.59-.34,1.31-.76,1.28-1.44a5.37,5.37,0,0,0-3.28,1c-.52.4-2,1.88-.69,2.17C182.93,600.86,184.22,599.31,184.87,598.94Z"/><path class="cls-14" d="M183.88,583.43a3.49,3.49,0,0,0,1.9-.59c.31-.22.61-.58.49-.94a.83.83,0,0,0-.81-.45,2,2,0,0,0-2,1.82c0,.18.16.45.29.31"/><path class="cls-12" d="M146.55,641.75a1.61,1.61,0,0,1,.29-2.23,2.38,2.38,0,0,1,2.38-.21,5,5,0,0,1,1.89,1.61,11.51,11.51,0,0,1,1,1.52c.14.27.25.65,0,.85a.7.7,0,0,1-.55.05,13.68,13.68,0,0,1-5.11-2.11"/><path class="cls-12" d="M162.79,546.08a.89.89,0,0,1-.46-1.1c.2-.4.73-.48,1.17-.5,1-.06,5.87-.7,4.76,1.78C167.74,547.41,163.74,546.61,162.79,546.08Z"/><path class="cls-12" d="M160,596.27a1,1,0,0,1,0-1.26,2.48,2.48,0,0,1,1.08-.8c.69-.33,5.28-2.08,5.37-.51C166.5,594.7,161,595.94,160,596.27Z"/><path class="cls-12" d="M157,591.5c-.12-.41.24-.79.6-1,1.52-1,6.28-1.78,6.83.67C162.59,592,159.2,591.4,157,591.5Z"/><path class="cls-2" d="M942,519.4l-36.49,21.21a1.37,1.37,0,0,1-1.36,0L867.44,519.4a1.35,1.35,0,0,1,0-2.34l36.49-21.21a1.36,1.36,0,0,1,1.35,0L942,517.07A1.34,1.34,0,0,1,942,519.4Z"/><path class="cls-12" d="M940.92,469.24l-1.54.87-2.27,1.28-6.64,3.75-16.25,9.18-9.73,5.49-.13.08v22.55l8.38-4.76,15.92-9,6.3-3.58c1.49-.84,3.29-1.59,4.4-2.87a.61.61,0,0,0-.64.15q.63-1.22,1.14-2.49l-.52.09a4.07,4.07,0,0,1,.63-1.37,1.35,1.35,0,0,0-.94.59,13,13,0,0,0,1-2.08.63.63,0,0,0-.67.43,5.12,5.12,0,0,0,1.12-2.23.85.85,0,0,0-1.11.36,2.69,2.69,0,0,0,.86-1.78.88.88,0,0,0-.78.56,3.84,3.84,0,0,0,1-2.26,1,1,0,0,0-.85.41,6.82,6.82,0,0,0,1.37-3,.5.5,0,0,0-.47.18,5.41,5.41,0,0,0,1.25-2.76,1.28,1.28,0,0,0-1,.42,6.56,6.56,0,0,0,.62-1.89.66.66,0,0,0,0-.28c-.15-.35-.67,0-.83.15a.32.32,0,0,1,.07-.3,1.07,1.07,0,0,1,.22-.15.79.79,0,0,0,.07-1.21c.18,0,.3-.18.34-.36a2,2,0,0,0-.06-1.22.82.82,0,0,0,.38-1.42.46.46,0,0,0-.16-.9C941.55,469.57,941.39,469,940.92,469.24Z"/><path class="cls-13" d="M867.8,469.25a10,10,0,0,1,1.29.72l2.1,1.19,6.35,3.58,16,9.05L904,489.68s.37.17.37.21v22.55c0-.21-1.89-1.07-2.07-1.18l-5.36-3-14.87-8.44-10.9-6.18-.8-.45c0-.43-1.11-.73-.84-1.11a2.31,2.31,0,0,1-1.06-1.9,1.7,1.7,0,0,1,.73.51,2.71,2.71,0,0,1-.43-1.71.2.2,0,0,1,.09-.15.2.2,0,0,1,.13,0,3.4,3.4,0,0,1,.81.4,2.11,2.11,0,0,1-.89-1.24.46.46,0,0,1,.11-.49.35.35,0,0,1,.2-.05,1.25,1.25,0,0,1,.66.14c-.38.11-1.08-1.45-1.22-1.77a1.36,1.36,0,0,1-.18-.91c.08-.31.45-.56.73-.39a3.73,3.73,0,0,0-.59-1.09,1.86,1.86,0,0,1-.4-1.14.77.77,0,0,1,.79-.76,5.82,5.82,0,0,1-.72-2.06c0-.4.13-1,.52-.88a3.47,3.47,0,0,1-.74-2.05c0-.34.26-.8.54-.61a7.79,7.79,0,0,1-.92-1.61,1.34,1.34,0,0,1-.14-.83.51.51,0,0,1,.64-.38,3.11,3.11,0,0,1-.73-2.19l.55-.09c-.4-.25-.83-.55-.91-1C867,469.11,867.33,469.07,867.8,469.25Z"/><polygon class="cls-15" points="869.95 510.04 904.73 529.68 904.73 536.12 872.39 517.78 869.95 510.04"/><polygon class="cls-16" points="939.52 510.04 904.73 529.68 904.73 536.12 937.08 517.78 939.52 510.04"/><path class="cls-13" d="M868.13,488l1.53.86,2.27,1.28,6.64,3.76,16.25,9.17,9.73,5.5.13.07v22.55l-8.38-4.76-15.92-9-6.3-3.57c-1.49-.85-3.29-1.6-4.4-2.88a.63.63,0,0,1,.64.15q-.63-1.22-1.14-2.49l.52.09a4.07,4.07,0,0,0-.63-1.37,1.42,1.42,0,0,1,.94.59,13.31,13.31,0,0,1-1-2.07.61.61,0,0,1,.67.43,5.16,5.16,0,0,1-1.12-2.24.85.85,0,0,1,1.11.37,2.66,2.66,0,0,1-.85-1.79.91.91,0,0,1,.77.56,3.84,3.84,0,0,1-1-2.25,1,1,0,0,1,.85.41,6.85,6.85,0,0,1-1.37-3,.53.53,0,0,1,.48.18,5.43,5.43,0,0,1-1.26-2.76,1.35,1.35,0,0,1,1,.42,6.28,6.28,0,0,1-.63-1.89.66.66,0,0,1,0-.28c.16-.35.67,0,.83.15a.3.3,0,0,0-.07-.3,1.7,1.7,0,0,0-.22-.15.8.8,0,0,1-.07-1.21c-.18,0-.29-.18-.34-.36a2,2,0,0,1,.06-1.22.84.84,0,0,1-.63-.59.83.83,0,0,1,.25-.83.47.47,0,0,1-.37-.52.49.49,0,0,1,.54-.38C867.49,488.36,867.65,487.77,868.13,488Z"/><path class="cls-12" d="M941.24,488a10,10,0,0,0-1.29.72l-2.1,1.19-6.35,3.58-16,9.05-10.44,5.9a1.86,1.86,0,0,0-.37.2v22.55a10.75,10.75,0,0,1,2.07-1.17l5.36-3L927,518.59l10.9-6.19.8-.44c0-.43,1.11-.73.84-1.12a2.29,2.29,0,0,0,1.06-1.89,1.74,1.74,0,0,0-.73.5,2.63,2.63,0,0,0,.43-1.71.19.19,0,0,0-.09-.15.2.2,0,0,0-.13,0,3.81,3.81,0,0,0-.81.4,2.08,2.08,0,0,0,.89-1.24c0-.17,0-.39-.1-.48a.56.56,0,0,0-.21-.06,1.22,1.22,0,0,0-.65.14c.37.11,1.07-1.45,1.21-1.76a1.37,1.37,0,0,0,.18-.92c-.08-.31-.45-.55-.72-.39a3.33,3.33,0,0,1,.58-1.08,1.92,1.92,0,0,0,.41-1.15.79.79,0,0,0-.8-.76,5.57,5.57,0,0,0,.72-2.06c0-.4-.12-1-.51-.88a3.53,3.53,0,0,0,.73-2.05c0-.33-.26-.8-.54-.6a8.4,8.4,0,0,0,.93-1.62,1.32,1.32,0,0,0,.14-.82c-.07-.28-.39-.51-.64-.39a3.14,3.14,0,0,0,.72-2.18l-.55-.09a1.71,1.71,0,0,0,.91-1C942.08,487.9,941.71,487.87,941.24,488Z"/><path class="cls-13" d="M868.13,453l1.53.87,2.27,1.28,6.64,3.75,16.25,9.18,9.73,5.5a.54.54,0,0,1,.13.07v22.55l-8.38-4.76-15.92-9-6.3-3.58c-1.49-.84-3.29-1.59-4.4-2.87a.61.61,0,0,1,.64.15q-.63-1.22-1.14-2.49l.52.09a4.07,4.07,0,0,0-.63-1.37,1.38,1.38,0,0,1,.94.59,13.31,13.31,0,0,1-1-2.07.62.62,0,0,1,.67.42,5.12,5.12,0,0,1-1.12-2.23.85.85,0,0,1,1.11.36,2.64,2.64,0,0,1-.85-1.78.88.88,0,0,1,.77.56,3.84,3.84,0,0,1-1-2.26,1,1,0,0,1,.85.41,6.76,6.76,0,0,1-1.37-3,.53.53,0,0,1,.48.18,5.47,5.47,0,0,1-1.26-2.76,1.32,1.32,0,0,1,1,.42,6.28,6.28,0,0,1-.63-1.89.66.66,0,0,1,0-.28c.16-.35.67,0,.83.15a.3.3,0,0,0-.07-.3,1.07,1.07,0,0,0-.22-.15.8.8,0,0,1-.07-1.21c-.18,0-.29-.18-.34-.36a2,2,0,0,1,.06-1.22.84.84,0,0,1-.63-.59.83.83,0,0,1,.25-.83.47.47,0,0,1-.37-.52.49.49,0,0,1,.54-.38C867.49,453.34,867.65,452.74,868.13,453Z"/><path class="cls-12" d="M941.24,453a10,10,0,0,0-1.29.72l-2.1,1.19-6.35,3.58-16,9.05-10.44,5.89s-.37.17-.37.21v22.55c0-.21,1.89-1.07,2.07-1.18l5.36-3L927,483.57l10.9-6.19.8-.45c0-.43,1.11-.73.84-1.11a2.3,2.3,0,0,0,1.06-1.9,1.76,1.76,0,0,0-.73.51,2.65,2.65,0,0,0,.43-1.71c0-.06,0-.13-.09-.15a.2.2,0,0,0-.13,0,3.81,3.81,0,0,0-.81.4,2.11,2.11,0,0,0,.89-1.24.47.47,0,0,0-.1-.49.8.8,0,0,0-.21-.05,1.22,1.22,0,0,0-.65.14c.37.11,1.07-1.45,1.21-1.77a1.35,1.35,0,0,0,.18-.91c-.08-.31-.45-.56-.72-.39a3.48,3.48,0,0,1,.58-1.09,1.87,1.87,0,0,0,.41-1.14.79.79,0,0,0-.8-.76,5.63,5.63,0,0,0,.72-2.06c0-.4-.12-1-.51-.88a3.53,3.53,0,0,0,.73-2.05c0-.34-.26-.8-.54-.6a8.71,8.71,0,0,0,.93-1.62,1.34,1.34,0,0,0,.14-.83c-.07-.27-.39-.5-.64-.38a3.15,3.15,0,0,0,.72-2.19l-.55-.09c.4-.25.83-.55.91-1C942.08,452.88,941.71,452.84,941.24,453Z"/><path class="cls-14" d="M940.19,452.39c.25-.21.11-.66-.19-.81a1.28,1.28,0,0,0-1,0l-.16,0-.48-.27c.15-.12.32-.22.48-.34s.51-.65.28-.93a.72.72,0,0,0-.42-.22,3.38,3.38,0,0,0-2.41.31l-.17-.1c.3-.36.87-.61.72-1s-.48-.36-.79-.34a5.16,5.16,0,0,0-1.69.36l-.07,0c.22-.52,1.31-.58,1.19-1.15-.08-.33-.52-.39-.86-.38l-1.4.06,1.33-.81a.53.53,0,0,0,.25-.24c.1-.24-.17-.47-.42-.57a4.19,4.19,0,0,0-3.74.29.53.53,0,0,0,0-.64,1.18,1.18,0,0,0-1-.15,2.15,2.15,0,0,1-1.06.11c.28.13.54-.3.38-.56a.85.85,0,0,0-.81-.31,2.59,2.59,0,0,0-.94.26l-.39-.22a.73.73,0,0,0-.27-.41,1.44,1.44,0,0,0-.82-.22l-.08,0c.39-.18.33-.88-.07-1.12a1.87,1.87,0,0,0-1.45,0c.94-.28.73-1.32-3.15-1.75.1-.3-.18-.62-.49-.69a1.59,1.59,0,0,0-.83.11l-.14-.07a.89.89,0,0,0-1-.57l-.25-.15a1,1,0,0,0-.44-.8,1.66,1.66,0,0,0,.22,0c.58-.16,1-.84.75-1.36a1.4,1.4,0,0,0-1-.53,7.75,7.75,0,0,0-3.82.28l-.22-.13a.78.78,0,0,0-.22-.77.76.76,0,0,0-1,0,1,1,0,0,0-.76-1,2.48,2.48,0,0,0-1.18,0l-.18-.1a.87.87,0,0,0-.8-1,.56.56,0,0,0,.22-.51.84.84,0,0,0-.75-.59,1.54,1.54,0,0,0-.37,0l.78-.19a1.64,1.64,0,0,0-1.65-.88,3,3,0,0,0-.78.18,2,2,0,0,0,.3-.21c.19-.18.36-.47.23-.69a.59.59,0,0,0-.46-.23,4,4,0,0,0-3,.72c0,.07.09,0,.1.07-.55.26-1.11-.42-1.75-.23-.47.15-.73.88-.31,1.14a3.06,3.06,0,0,0-3.05-.49,1.54,1.54,0,0,0-1,1.09c-.09.53.4,1.12.91,1a4.32,4.32,0,0,0-1.79.11,1.33,1.33,0,0,0-1,.78c-.12.42.39.93.74.67a1.84,1.84,0,0,0-2.09,1.19,1.15,1.15,0,0,0-1.76,1.42,1.46,1.46,0,0,0-2,1.11,1.6,1.6,0,0,0-2.11.9,2.22,2.22,0,0,0-2.8.79c-.12.21-.17.54,0,.63A2.4,2.4,0,0,0,885,442a.84.84,0,0,0-.67.92,3.76,3.76,0,0,0-4.71,1.07.43.43,0,0,0,.23.79,4,4,0,0,0,1.29.1,4.78,4.78,0,0,0-3.74,1.1.89.89,0,0,0-.36.58.65.65,0,0,0,.61.6,2,2,0,0,0,.92-.21,4.5,4.5,0,0,0-3.56,1.5,1.64,1.64,0,0,0-1.82,1.07c-.11-.48-.66-.7-1.14-.74a1.8,1.8,0,0,0-1.78.7c-.33.58.19,1.52.83,1.33a2.45,2.45,0,0,0-2.27.91c-.5.64-.9,2-.43,2.28s36,20.31,36.25,20.47L941,454Z"/><path class="cls-14" d="M938.89,456.81a1,1,0,0,1-1.47.14,1.65,1.65,0,0,1-1.94.53,2.33,2.33,0,0,1-2.35,2.43,21.76,21.76,0,0,0-1.23,2.68,2.49,2.49,0,0,1-2.28,1.56c-1-.13-1.5-1.7-.6-2.11a2,2,0,0,1-2.91,1.53,1,1,0,0,1-1.68.62c-.3,1.11-1.77,1.3-2.91,1.27a1.36,1.36,0,0,1-.3,1.16l-.74-.46a5.75,5.75,0,0,1-1.22,2.27,2,2,0,0,1-2.36.42,2.3,2.3,0,0,1-2.38,1.9,1.24,1.24,0,0,1-.21-1.1,1.34,1.34,0,0,1-2.12.71,2.81,2.81,0,0,1-.55,1.26,1,1,0,0,1-1.24.21,1.71,1.71,0,0,1-2.06,1.39l-2.2,1.59c-.72.52-1.84,1-2.39.31a1.77,1.77,0,0,1-2.69-1.33,1,1,0,0,1,.84-.67l-1.1.21-.28-.86a8.45,8.45,0,0,1-3.46-.36c-.37-.11-.73-.7-.34-.77A4.46,4.46,0,0,1,893,471l.72-.83a10.07,10.07,0,0,1-3.63.12,2.58,2.58,0,0,1-1.82-.9c-.39-.57-.17-1.56.52-1.66a3.56,3.56,0,0,1-1.59,0,1.21,1.21,0,0,1-.92-1.16,3.78,3.78,0,0,1-1.82-3c-.23.58-.54,1.25-1.16,1.41s-1.29-.73-.77-1.09a1.13,1.13,0,0,1-.95-1.47.75.75,0,0,1-1.2-.58,1.78,1.78,0,0,1-2.27,1.55,1.82,1.82,0,0,1,1.69-1.4h-1.62a.89.89,0,0,1,1.14-.91,15,15,0,0,1-6.09-3.53,1.24,1.24,0,1,1-1.91-.94.62.62,0,0,1-.83.52,2.3,2.3,0,0,1,0-1.22,2.11,2.11,0,0,1-1.12.32l-.11-1.07c-.37.37-1-.27-.84-.77a1.71,1.71,0,0,1,1.25-.87,43.22,43.22,0,0,1,13.6-1.86c7.44.17,14.74,2.27,22.18,2.43,5.92.13,11.78-1,17.67-1.54a57,57,0,0,1,8.26-.3c2.53.11,5.59.28,7.93,1.34.88.41,1.94,1.76.21,1.72A3.45,3.45,0,0,1,938.89,456.81Z"/><path class="cls-12" d="M897.8,446.73a2.25,2.25,0,0,1-2.44.85.4.4,0,0,1-.22-.14.27.27,0,0,1,.1-.32.85.85,0,0,1,.35-.11,8.89,8.89,0,0,1,2.47,0"/><path class="cls-12" d="M893.58,444.66a2.46,2.46,0,0,1-1.75.11.46.46,0,0,1-.33-.25.33.33,0,0,1,.19-.38.75.75,0,0,1,.47-.06,3.51,3.51,0,0,1,1.51.47"/><path class="cls-12" d="M907.8,438.53a2.88,2.88,0,0,0,.88,2.33,2.62,2.62,0,0,0-.52-2.25"/><path class="cls-12" d="M910,437.09c.8.4,1.16,1.38,2,1.72a.27.27,0,0,0,.26,0c.14-.09,0-.3-.1-.42a5.7,5.7,0,0,0-2.41-1.29"/><path class="cls-12" d="M932.28,455.24s-3.6.48-3.26-.74C929.21,453.81,932.28,455.24,932.28,455.24Z"/><path class="cls-12" d="M924,460.85c-.16.14-2.68-1.22-1.66-1.86S923.83,460.52,924,460.85Z"/><path class="cls-12" d="M920,459.39a4.94,4.94,0,0,1,.48,3,2.79,2.79,0,0,1-1-1.17A3.34,3.34,0,0,1,920,459.39Z"/><path class="cls-12" d="M910.58,467a1.26,1.26,0,0,1-.55.65l-.1,0c.14,0-.34-1.21.23-1.38S910.73,466.69,910.58,467Z"/><path class="cls-12" d="M873.53,499.23c-.64.32-1.36.73-1.48,1.42a4.26,4.26,0,0,0,2-.11,4.32,4.32,0,0,0,.92-.61c.32-.26,1.84-1.32,1.25-1.69S874,499,873.53,499.23Z"/><path class="cls-12" d="M876.78,507.34a4,4,0,0,0-1.1,1.26c.22-.48,4.05-1.81,3.07-2.91A18.31,18.31,0,0,0,876.78,507.34Z"/><path class="cls-12" d="M886.81,514.62a3.07,3.07,0,0,0,0,2c.25.07.42-.23.48-.48a7.86,7.86,0,0,0,.21-3.34A17.31,17.31,0,0,0,886.81,514.62Z"/><path class="cls-12" d="M890.22,516.43c.85-.17.4-2.75-.7-2.46C888.63,514.2,889.61,516.55,890.22,516.43Z"/><path class="cls-12" d="M903.09,450.64a3,3,0,0,0,0,2c.25.08.42-.23.48-.47a7.92,7.92,0,0,0,.22-3.35A15.43,15.43,0,0,0,903.09,450.64Z"/><path class="cls-12" d="M906.5,452.45c.84-.17.4-2.75-.71-2.46C904.9,450.22,905.88,452.57,906.5,452.45Z"/><path class="cls-12" d="M884.82,505.16a.29.29,0,0,1-.26,0,.2.2,0,0,1-.07-.16c-.07-.62,1.12-1.69,1.75-1.25C887.05,504.29,885.29,505.05,884.82,505.16Z"/><path class="cls-14" d="M917.21,517.2a6.51,6.51,0,0,0-1.65-2.47c-.52-.48-1.7-1.52-2.45-1.36a4.83,4.83,0,0,0,1.65,2.33,6.84,6.84,0,0,0,1.18.88A8.86,8.86,0,0,1,917.21,517.2Z"/><path class="cls-14" d="M926.37,513.51c.15,0,.35,0,.43-.08a.35.35,0,0,0,0-.35c-.32-.63-1.47-2.14-2.27-1.35S925.73,513.35,926.37,513.51Z"/><path class="cls-14" d="M929.36,511c-.19,0-1.25-1-1.59-1.15s-1.68-.62-2-.29C925,510.46,929,511,929.36,511Z"/><path class="cls-12" d="M894.77,466.62a6.64,6.64,0,0,1,2.05-2.17c.59-.39,1.94-1.22,2.65-.94-.23.78-1.33,1.58-2,2a9.14,9.14,0,0,1-1.32.68A8.18,8.18,0,0,0,894.77,466.62Z"/><path class="cls-12" d="M886.37,461.5c-.15,0-.35,0-.41-.14a.36.36,0,0,1,.1-.35c.42-.56,1.82-1.87,2.47-1S887,461.45,886.37,461.5Z"/><path class="cls-12" d="M883.86,458.55c.19,0,1.4-.8,1.77-.88s1.76-.34,2,0C888.24,458.71,884.25,458.63,883.86,458.55Z"/><path class="cls-14" d="M930.93,501.52c-.42.12-2.06-2.08-2.73-.91S930.42,501.66,930.93,501.52Z"/><path class="cls-14" d="M935,497.48a4,4,0,0,0,2.06.16c.18,0,.42-.15.37-.33a.32.32,0,0,0-.19-.19,4.17,4.17,0,0,0-3-.44"/><path class="cls-14" d="M929.39,477.88a2.18,2.18,0,0,1,1.17,1.41,2.6,2.6,0,0,1-1.61-.11,3,3,0,0,1-.74-.61c-.25-.25-1.45-1.32-1-1.69S929,477.65,929.39,477.88Z"/><path class="cls-14" d="M926.82,486a4,4,0,0,1,.86,1.26c-.17-.47-3.2-1.81-2.42-2.9A15.21,15.21,0,0,1,926.82,486Z"/><path class="cls-14" d="M918.89,493.27a3.85,3.85,0,0,1,0,2c-.2.08-.33-.23-.38-.47a9.94,9.94,0,0,1-.17-3.35A17,17,0,0,1,918.89,493.27Z"/><path class="cls-14" d="M916.2,495.08c-.67-.17-.32-2.75.56-2.46C917.46,492.85,916.68,495.2,916.2,495.08Z"/><path class="cls-14" d="M920.47,483.8a.2.2,0,0,0,.2,0,.29.29,0,0,0,.06-.17c0-.62-.89-1.68-1.39-1.24S920.1,483.69,920.47,483.8Z"/><path class="cls-12" d="M894.88,495.85a6.76,6.76,0,0,1,1.3-2.48c.41-.48,1.34-1.52,1.94-1.35a5.13,5.13,0,0,1-1.3,2.33,6.5,6.5,0,0,1-.94.88C895.74,495.34,894.92,495.7,894.88,495.85Z"/><path class="cls-12" d="M887.64,492.16c-.12,0-.27,0-.34-.08a.46.46,0,0,1,0-.36c.25-.62,1.16-2.13,1.79-1.34S888.15,492,887.64,492.16Z"/><path class="cls-12" d="M885.28,489.65c.15,0,1-1,1.25-1.15s1.33-.63,1.56-.3C888.71,489.1,885.6,489.66,885.28,489.65Z"/><path class="cls-12" d="M884,480.17c.34.11,1.63-2.09,2.16-.91S884.44,480.31,884,480.17Z"/><path class="cls-12" d="M880.84,476.12a2.49,2.49,0,0,1-1.63.17c-.15,0-.33-.15-.29-.33a.3.3,0,0,1,.15-.2,2.72,2.72,0,0,1,2.38-.43"/><path class="cls-12" d="M912.44,451.13c-.66.29-2.26-.81-1.78-1.51C911.31,448.66,912.19,451.24,912.44,451.13Z"/><path class="cls-12" d="M909.64,450.13a2.36,2.36,0,0,1,.48,2,2.45,2.45,0,0,1-.49-1.9"/><path class="cls-13" d="M903.75,509.29c.64.18,1.67-.81,1.77-.15a1.18,1.18,0,0,1-1.11,1.36,2.26,2.26,0,0,1,.44.94.75.75,0,0,1-.45.85,2.48,2.48,0,0,1,.53,1.08.85.85,0,0,1-.56,1,2.37,2.37,0,0,1,.51,3.07,1.16,1.16,0,0,1,1,.74,2.18,2.18,0,0,1-.81,2.7.59.59,0,0,1,.9.33,1.19,1.19,0,0,1-.33,1.06c-.25.29-.56.53-.78.84a.63.63,0,0,1,1,0,1,1,0,0,1,.07,1.06,2.89,2.89,0,0,1-.69.87c.56-.21,1.11.47,1,1.05a2.6,2.6,0,0,1-1,1.43,1.27,1.27,0,0,1-.25,2,1,1,0,0,1-.43,1.54c-1.92-4.47-2.13-9.48-2-14.35a36.37,36.37,0,0,1,.76-6.91"/><path class="cls-13" d="M904.07,487.49c.65.19,1.67-.81,1.77-.14a1.16,1.16,0,0,1-1.11,1.35,2.31,2.31,0,0,1,.45.95.77.77,0,0,1-.45.85,2.52,2.52,0,0,1,.52,1.08.86.86,0,0,1-.55,1,2.37,2.37,0,0,1,.51,3.07,1.16,1.16,0,0,1,1,.73,2.18,2.18,0,0,1-.8,2.7c.27-.26.79,0,.9.34a1.2,1.2,0,0,1-.34,1.05c-.25.3-.56.53-.78.85a.64.64,0,0,1,1,.05,1.05,1.05,0,0,1,.07,1.06,3.58,3.58,0,0,1-.69.87c.55-.22,1.11.46,1,1.05a2.66,2.66,0,0,1-1,1.43,1.27,1.27,0,0,1-.24,2,1,1,0,0,1-.43,1.53c-1.92-4.47-2.14-9.48-2-14.34a34.82,34.82,0,0,1,.76-6.91"/><path class="cls-13" d="M904.07,475.59c.65.18,1.67-.81,1.77-.15a1.17,1.17,0,0,1-1.11,1.36,2.28,2.28,0,0,1,.45.94.78.78,0,0,1-.45.86,2.47,2.47,0,0,1,.52,1.08.85.85,0,0,1-.55.95,2.37,2.37,0,0,1,.51,3.07,1.15,1.15,0,0,1,1,.74,2.18,2.18,0,0,1-.8,2.7c.27-.27.79,0,.9.33a1.22,1.22,0,0,1-.34,1.06c-.25.29-.56.53-.78.84a.65.65,0,0,1,1,.05,1.05,1.05,0,0,1,.07,1.06,3.23,3.23,0,0,1-.69.87c.55-.21,1.11.47,1,1a2.62,2.62,0,0,1-1,1.43,1.28,1.28,0,0,1-.24,2,1,1,0,0,1-.43,1.53c-1.92-4.47-2.14-9.48-2-14.34a34.84,34.84,0,0,1,.76-6.92"/><path class="cls-2" d="M225.23,609.78l44.9,26.09a1.69,1.69,0,0,0,1.67,0L387.92,569.1a1.65,1.65,0,0,0,0-2.87L365.29,554c-.51-.3-94.33,26.48-94.85,26.77l-45.21,26.11A1.66,1.66,0,0,0,225.23,609.78Z"/><polygon class="cls-16" points="384.84 557.58 271.12 622.43 271.12 630.35 381.84 567.11 384.84 557.58"/><polygon class="cls-15" points="228.32 598.25 271.12 622.43 271.12 630.35 231.32 607.78 228.32 598.25"/><path class="cls-12" d="M387.08,530.51l-1.89,1.07-2.79,1.57-8.18,4.62-20,11.3c-4,2.25-78.9,45.17-82.89,47.43,0,0-.16.07-.16.09v27.74c3.44-2,77.79-44.57,81.23-46.52L372,566.71l7.75-4.4c1.83-1,4.05-2,5.42-3.54a.74.74,0,0,0-.79.19c.51-1,1-2,1.4-3.07l-.64.11a5,5,0,0,1,.78-1.68,1.66,1.66,0,0,0-1.16.72,15.11,15.11,0,0,0,1.26-2.55.77.77,0,0,0-.82.53,6.27,6.27,0,0,0,1.38-2.76,1.06,1.06,0,0,0-1.37.46,3.36,3.36,0,0,0,1.06-2.2,1.1,1.1,0,0,0-1,.69,4.68,4.68,0,0,0,1.27-2.78,1.22,1.22,0,0,0-1,.51,8.55,8.55,0,0,0,1.68-3.64.59.59,0,0,0-.58.21,6.67,6.67,0,0,0,1.54-3.39,1.59,1.59,0,0,0-1.25.52,8.29,8.29,0,0,0,.77-2.33.64.64,0,0,0,0-.34c-.18-.44-.81,0-1,.18a.41.41,0,0,1,.09-.37,1.65,1.65,0,0,1,.27-.19,1,1,0,0,0,.09-1.48c.22,0,.36-.23.42-.45a2.48,2.48,0,0,0-.07-1.5,1,1,0,0,0,.77-.73,1,1,0,0,0-.31-1,.58.58,0,0,0,.46-.64.59.59,0,0,0-.66-.46C387.86,530.92,387.67,530.18,387.08,530.51Z"/><path class="cls-13" d="M226.19,571.19a12.41,12.41,0,0,1,1.59.89l2.59,1.46,7.81,4.41,19.71,11.13,12.84,7.26s.45.2.45.25v27.74c0-.25-2.32-1.31-2.55-1.44L262,619.15l-18.29-10.37-13.42-7.61c-.32-.19-.66-.38-1-.55,0-.53-1.36-.9-1-1.37a2.82,2.82,0,0,1-1.31-2.34,2.18,2.18,0,0,1,.9.62,3.23,3.23,0,0,1-.53-2.09.22.22,0,0,1,.11-.19.23.23,0,0,1,.16,0,4.56,4.56,0,0,1,1,.49,2.54,2.54,0,0,1-1.08-1.52.54.54,0,0,1,.12-.6.48.48,0,0,1,.26-.06,1.38,1.38,0,0,1,.8.17c-.46.13-1.32-1.79-1.5-2.18a1.81,1.81,0,0,1-.22-1.13c.1-.37.56-.68.9-.47a4.73,4.73,0,0,0-.73-1.34,2.3,2.3,0,0,1-.49-1.41,1,1,0,0,1,1-.93,6.94,6.94,0,0,1-.89-2.54c-.07-.49.15-1.2.63-1.07a4.31,4.31,0,0,1-.9-2.53c0-.41.32-1,.66-.74a10.3,10.3,0,0,1-1.13-2,1.68,1.68,0,0,1-.18-1,.62.62,0,0,1,.79-.47,3.82,3.82,0,0,1-.89-2.69l.67-.11c-.49-.31-1-.68-1.12-1.25C225.17,571,225.62,571,226.19,571.19Z"/><path class="cls-14" d="M270.89,543.18a1.75,1.75,0,1,1,2.9-1.91,7.56,7.56,0,0,1,4.53-2.71,1.93,1.93,0,0,0-1.75-1.76,2,2,0,0,1,2.2-.12,4.78,4.78,0,0,0,2.21.7c1.52-.15-1.64-1.94,3.64-2.64-.37.36-1.09,0-1.12-.53a1,1,0,0,1,1-1,2,2,0,0,1,1.42.53c-.43-.4-.11-1.19.43-1.39a2.15,2.15,0,0,1,1.66.29,1.22,1.22,0,0,1,2.07-1.28l2.07-1.89a5,5,0,0,1,1.87-1.24,1.7,1.7,0,0,1,2,.67,2.09,2.09,0,0,1,3.1-1.55,2.74,2.74,0,0,1,.65-1.87,7.51,7.51,0,0,1,1.68.77,2.94,2.94,0,0,1,3-3.35c-.19-.91.9-1.51,1.79-1.79.68-.21,1.62-.32,1.94.32-.18-.36,1.95-1.21,2.19-1.27,1-.23,1.81.37,2.69.13-.34.16-.67-.37-.48-.69a1.08,1.08,0,0,1,1-.38,3.09,3.09,0,0,1,1.16.32l.48-.28a.94.94,0,0,1,.33-.5,1.71,1.71,0,0,1,1-.26l.09-.06c-.47-.21-.41-1.08.08-1.37a2.3,2.3,0,0,1,1.8,0c-1.16-.36-.91-1.63,3.87-2.16a.73.73,0,0,1,.6-.85,1.85,1.85,0,0,1,1,.14l.16-.1a1.12,1.12,0,0,1,1.23-.7l.31-.18a1.24,1.24,0,0,1,.55-1,2.4,2.4,0,0,1-.28,0c-.71-.19-1.28-1-.91-1.67a1.63,1.63,0,0,1,1.21-.65,9.61,9.61,0,0,1,4.7.33l.27-.16a1,1,0,0,1,.27-.94.94.94,0,0,1,1.23,0,1.24,1.24,0,0,1,.93-1.28,3.13,3.13,0,0,1,1.46,0l.21-.12a1.1,1.1,0,0,1,1-1.19.64.64,0,0,1-.27-.62,1,1,0,0,1,.92-.72,1.71,1.71,0,0,1,.45,0l-1-.23a2,2,0,0,1,2-1.08,3.52,3.52,0,0,1,1,.22,3.09,3.09,0,0,1-.37-.26c-.23-.22-.45-.58-.27-.86a.8.8,0,0,1,.56-.28,5,5,0,0,1,3.63.89c0,.08-.11,0-.13.09.68.32,1.37-.52,2.16-.28.58.18.9,1.08.38,1.4a3.77,3.77,0,0,1,3.75-.61,1.93,1.93,0,0,1,1.28,1.35c.11.64-.5,1.37-1.12,1.19a5.27,5.27,0,0,1,2.2.14,1.59,1.59,0,0,1,1.22.95c.14.52-.48,1.15-.92.83a2.28,2.28,0,0,1,2.58,1.46,1.41,1.41,0,0,1,2.17,1.75,1.79,1.79,0,0,1,2.45,1.36,2,2,0,0,1,2.61,1.11,2.74,2.74,0,0,1,3.44,1c.15.25.21.66-.06.77a2.84,2.84,0,0,1,1.52-.17,1,1,0,0,1,.83,1.12,4.65,4.65,0,0,1,5.8,1.32c.15.22.29.52.14.74a.66.66,0,0,1-.43.24,4.93,4.93,0,0,1-1.58.13,5.8,5.8,0,0,1,4.59,1.35,1.06,1.06,0,0,1,.45.71.8.8,0,0,1-.76.74,2.36,2.36,0,0,1-1.12-.26,5.48,5.48,0,0,1,4.37,1.84,2,2,0,0,1,2.24,1.32c.14-.59.82-.86,1.41-.91a2.2,2.2,0,0,1,2.18.86c.41.72-.22,1.87-1,1.64a3,3,0,0,1,2.81,1.12c.6.78,1.1,2.45.52,2.8-.74.45-115.19,65.67-115.52,65.87l-44.72-25.28,1-1.94c-.31-.26-.12-.82.24-1a1.68,1.68,0,0,1,1.19,0l.19.06.59-.34c-.19-.15-.4-.28-.59-.42-.35-.27-.62-.8-.35-1.15a1,1,0,0,1,.52-.27,4.23,4.23,0,0,1,3,.38l.22-.12c-.38-.44-1.07-.74-.89-1.26.12-.36.59-.44,1-.42a6.52,6.52,0,0,1,2.08.45l.09,0c-.28-.65-1.62-.72-1.46-1.42.09-.41.63-.49,1-.47l1.73.07-1.64-1a.63.63,0,0,1-.31-.29c-.12-.3.21-.58.51-.71a5.15,5.15,0,0,1,4.6.36c-.23-.14.37-2.24.58-2.47.4-.43,1.35-.2,1.26.37l1.65-1.2a11.08,11.08,0,0,0,4-2,4.81,4.81,0,0,1,1.53-3c.92-.66,2.58-.26,2.65.87l.07-1.08a20.38,20.38,0,0,0,2.93-.85,1.73,1.73,0,0,0-1.6-1.85,8.24,8.24,0,0,1,5.5,0,1.17,1.17,0,0,1,1.54-1.77,1.56,1.56,0,0,1,1.13-2.18.48.48,0,0,0,.8.23.76.76,0,0,1,.52.83,5.34,5.34,0,0,1,2.69-4c1.13-.61,2.87-.57,3.33.62-.19-.5,1.71-1.09,1.94-1.25,1-.7-.27-1-.26-2a2.12,2.12,0,0,1,1.63.25,1.13,1.13,0,0,1-1-.87.66.66,0,0,1,.13-.59.75.75,0,0,1,.35-.19,3.8,3.8,0,0,1,2.81.16,1,1,0,0,1,0-1.27,1.86,1.86,0,0,1,1.23-.56,3.2,3.2,0,0,1,1.91.44.83.83,0,0,1,1.65-.05"/><path class="cls-14" d="M345.18,556.82a.49.49,0,0,0-.35-.22l.33-.19Z"/><path class="cls-14" d="M343.73,557.7c.12.77.87,1.26,1.54,1.65a4.54,4.54,0,0,1-4-.8l2.58-1.42A.88.88,0,0,0,343.73,557.7Z"/><path class="cls-14" d="M338.83,561.07a1.75,1.75,0,0,1-1-.61l1.11-.61Z"/><path class="cls-14" d="M340.71,560.09a1.11,1.11,0,0,1-1.68-.3l2-1.09A1.42,1.42,0,0,1,340.71,560.09Z"/><path class="cls-14" d="M348.51,555.68a2.13,2.13,0,0,1-1.46-.31l2.09-1.15C349.54,554.68,349.14,555.53,348.51,555.68Z"/><path class="cls-14" d="M228.6,570.83c2.88-1.3,6.64-1.51,9.76-1.65,3.39-.15,77.7-40.64,81.07-40.3,7.25.71,14.47,2,21.75,1.89,9.15-.2,18.13-2.77,27.29-3a53,53,0,0,1,16.73,2.29c.63.19,1.32.46,1.54,1.07s-.58,1.41-1,1c0,.44-.09.88-.13,1.32a2.57,2.57,0,0,1-1.37-.4,2.93,2.93,0,0,1-.06,1.5.68.68,0,0,1-.54,0,1.62,1.62,0,0,1-.66,2,1.6,1.6,0,0,1-2.18-1.5,18.15,18.15,0,0,1-7.49,4.35,1.1,1.1,0,0,1,1.4,1.12h-2a2.22,2.22,0,0,1,2.08,1.71,2.18,2.18,0,0,1-2.79-1.91.93.93,0,0,1-1.48.72,1.4,1.4,0,0,1-1.17,1.81c.64.45-.2,1.54-.95,1.34s-1.14-1-1.43-1.74a4.62,4.62,0,0,1-2.24,3.71,1.49,1.49,0,0,1-1.13,1.43,4.33,4.33,0,0,1-2,0c.85.12,1.13,1.35.65,2.05a3.24,3.24,0,0,1-2.24,1.1,12.45,12.45,0,0,1-4.47-.14l.89,1a5.48,5.48,0,0,1-4.54.46c.47.09,0,.81-.42,1l-.45.22-1.69.93-.15.08h0l-.05,0h0c-.28.14-.53.28-.69.37l-1.42.78h0l-.38.21v0l-.94.52h0l-.6.33v0l-.37.2,0,0-1,.53,0,0-2.63,1.46h0l-.28.15h0l-2,1.09h0l-.11.06h0l-1.12.62h0l-.26.14h0l-1,.54-4.38,2.41s0,0,0,0l3.95-2.19.44-.24,1-.54c0,.73.05,1.46.07,2.19a1.65,1.65,0,0,1-1.1-.59,6.87,6.87,0,0,1,.31,2.38,2.45,2.45,0,0,1-2.62-1.11.9.9,0,0,1-1.63.77,1.38,1.38,0,0,1-.76,1.68,1.4,1.4,0,0,1-1.42-.3,29.45,29.45,0,0,1-7.68,4.11l-1.37.48-.2.15a1.6,1.6,0,0,1-1.3.42l-.31.14a2.73,2.73,0,0,1-1.17,2.34,1.81,1.81,0,0,1-1.89-.11l-.39.33c0,.18.08.36.11.55.07.58-.13,1.3-.7,1.45s-1.06-.85-.49-1c-.1,0-.2-.05-.3-.08-.38.19-.78.36-1.17.53l-.84.39,1,.45c.43.19.93.56.77,1a.86.86,0,0,1-.72.41,4,4,0,0,1-2.74-.72.66.66,0,0,1,.05.34l-1.35-.06-.59.29a2.19,2.19,0,0,1,.53.82l-2.33.65a1.24,1.24,0,0,1-2,.92,5,5,0,0,1-.63,2.42,2.16,2.16,0,0,1-2.11,1.1,1.49,1.49,0,0,1-1.12-1,1.74,1.74,0,0,1-.36,1c-.41.48-1.37.45-1.51-.16.21,1.23-1.43,1.84-2.67,2l-2.39.26-1.23.67a2.41,2.41,0,0,1,1.1,2.32,5.35,5.35,0,0,1-3.13-1.2l-.21.11c.16.45.33.9.5,1.35a3.5,3.5,0,0,1-2.27-.38l-.44.24a1.76,1.76,0,0,1-.15,1c-.24.46-.95.69-1.28.3.43.54-.63.94-1.24,1.28s-.77.87-1.19,1.29-1.23.58-1.52.08a2,2,0,0,1-3.23,1.61,2.3,2.3,0,0,1-3.77.71L277,594a4.88,4.88,0,0,0,.64-.27h-.16L277,594a1.59,1.59,0,0,1-.67.12l-.35,1.06-1.34-.26a1.3,1.3,0,0,1,1,.82,2.17,2.17,0,0,1-3.31,1.64c-.68.86-2.05.27-2.94-.38l-2.7-2a2.1,2.1,0,0,1-2.54-1.71,1.2,1.2,0,0,1-1.53-.27,3.51,3.51,0,0,1-.67-1.54,1.65,1.65,0,0,1-2.61-.87,1.53,1.53,0,0,1-.26,1.34,2.82,2.82,0,0,1-2.93-2.34,2.42,2.42,0,0,1-2.91-.51,7,7,0,0,1-1.49-2.79l-.91.56a1.61,1.61,0,0,1-.37-1.42c-1.41,0-3.21-.2-3.58-1.56a1.21,1.21,0,0,1-2.07-.77,2.48,2.48,0,0,1-3-.67,1.62,1.62,0,0,1-1.27,1.38,3,3,0,0,1-2.81-1.92,28.86,28.86,0,0,0-1.51-3.29,2.88,2.88,0,0,1-2.89-3,2,2,0,0,1-2.39-.65,1.28,1.28,0,0,1-1.81-.16,4.32,4.32,0,0,1-.75-1.87C226.21,573,227.51,571.33,228.6,570.83Z"/><path class="cls-14" d="M346.68,556.55l-.92-.47.91-.5A2.87,2.87,0,0,1,346.68,556.55Z"/><path class="cls-14" d="M351.09,554.86a3.83,3.83,0,0,1-1.9-.67l.15-.08C350.49,553.57,352,553.05,351.09,554.86Z"/><path class="cls-12" d="M333.78,521.73a2.6,2.6,0,0,1-2.9,1,.42.42,0,0,1-.26-.16.32.32,0,0,1,.11-.4.87.87,0,0,1,.42-.14,10.34,10.34,0,0,1,2.94,0"/><path class="cls-12" d="M328.75,519.18a2.8,2.8,0,0,1-2.07.14c-.17-.06-.35-.14-.4-.31a.41.41,0,0,1,.23-.47,1.07,1.07,0,0,1,.56-.08,4.43,4.43,0,0,1,1.8.58"/><path class="cls-12" d="M345.69,511.64a3.59,3.59,0,0,0,1,2.87,3.24,3.24,0,0,0-.62-2.77"/><path class="cls-12" d="M348.3,509.87c.95.48,1.38,1.7,2.36,2.12a.34.34,0,0,0,.31,0c.17-.11,0-.38-.12-.52a6.75,6.75,0,0,0-2.86-1.59"/><path class="cls-12" d="M374.83,532.19s-4.29.6-3.89-.9C371.17,530.44,374.83,532.19,374.83,532.19Z"/><path class="cls-12" d="M364.94,539.11c-.19.17-3.18-1.51-2-2.3S364.76,538.7,364.94,539.11Z"/><path class="cls-12" d="M360.17,537.3a6.2,6.2,0,0,1,.57,3.75,3.39,3.39,0,0,1-1.17-1.45A4.24,4.24,0,0,1,360.17,537.3Z"/><path class="cls-12" d="M278.08,587.36a1.48,1.48,0,0,1-.66.81l-.11,0c.17-.05-.41-1.48.26-1.69S278.26,587,278.08,587.36Z"/><path class="cls-14" d="M234,585c-.76.39-1.61.9-1.76,1.74a4.75,4.75,0,0,0,2.43-.13,4.86,4.86,0,0,0,1.1-.75c.38-.32,2.19-1.63,1.48-2.08S234.5,584.69,234,585Z"/><path class="cls-14" d="M237.84,594.93a5.08,5.08,0,0,0-1.3,1.55c.26-.58,4.82-2.22,3.65-3.57A23.64,23.64,0,0,0,237.84,594.93Z"/><path class="cls-14" d="M249.79,603.9a3.86,3.86,0,0,0,0,2.49c.29.09.5-.28.57-.58a10.25,10.25,0,0,0,.26-4.12A19.94,19.94,0,0,0,249.79,603.9Z"/><path class="cls-14" d="M253.85,606.12c1-.2.47-3.37-.84-3C252,603.38,253.11,606.27,253.85,606.12Z"/><path class="cls-12" d="M340.08,526.54a3.8,3.8,0,0,0,0,2.49c.29.09.5-.28.57-.58a10.08,10.08,0,0,0,.25-4.12A18.05,18.05,0,0,0,340.08,526.54Z"/><path class="cls-12" d="M344.13,528.76c1-.2.48-3.38-.84-3C342.24,526,343.4,528.91,344.13,528.76Z"/><path class="cls-14" d="M247.41,592.25a.32.32,0,0,1-.3,0,.27.27,0,0,1-.09-.2c-.08-.76,1.34-2.08,2.09-1.53C250.08,591.19,248,592.12,247.41,592.25Z"/><path class="cls-14" d="M277.17,610.2c.24.82.58,1.75,1.38,2.06a4.78,4.78,0,0,0,.32-2.41,4.62,4.62,0,0,0-.53-1.23c-.23-.43-1.18-2.45-1.76-1.84S277,609.63,277.17,610.2Z"/><path class="cls-14" d="M287.69,608.27a4.89,4.89,0,0,0,1.28,1.57c-.53-.37-1.28-5.15-2.82-4.25A22.36,22.36,0,0,0,287.69,608.27Z"/><path class="cls-14" d="M298.74,598.22a3.84,3.84,0,0,0,2.44.51c.14-.27-.19-.55-.47-.67a10.12,10.12,0,0,0-4-1A18.45,18.45,0,0,0,298.74,598.22Z"/><path class="cls-14" d="M301.68,594.65c0-1-3.22-1.1-3.12.26C298.64,596,301.69,595.4,301.68,594.65Z"/><path class="cls-14" d="M286.85,598.37a.32.32,0,0,1-.08.29.28.28,0,0,1-.22.05c-.76-.06-1.79-1.7-1.11-2.34C286.3,595.55,286.83,597.79,286.85,598.37Z"/><path class="cls-14" d="M322.19,583.46c.25.82.58,1.75,1.38,2a3.58,3.58,0,0,0-.2-3.63c-.24-.43-1.19-2.46-1.77-1.84S322,582.89,322.19,583.46Z"/><path class="cls-14" d="M332.72,581.53A5,5,0,0,0,334,583.1c-.52-.37-1.28-5.16-2.82-4.26A22.56,22.56,0,0,0,332.72,581.53Z"/><path class="cls-14" d="M343.76,571.48a3.84,3.84,0,0,0,2.44.5c.15-.27-.18-.54-.46-.67a10.2,10.2,0,0,0-4-1A22.32,22.32,0,0,0,343.76,571.48Z"/><path class="cls-14" d="M346.71,567.91c0-1-3.23-1.1-3.13.26C343.66,569.26,346.72,568.66,346.71,567.91Z"/><path class="cls-14" d="M331.88,571.63a.38.38,0,0,1-.09.29.31.31,0,0,1-.21.05c-.77-.07-1.79-1.71-1.12-2.34C331.33,568.81,331.85,571.05,331.88,571.63Z"/><path class="cls-12" d="M356.88,566.4a7.85,7.85,0,0,0-2-3c-.61-.59-2-1.87-2.92-1.67a6.05,6.05,0,0,0,2,2.86,9.83,9.83,0,0,0,1.41,1.09C355.59,565.78,356.82,566.22,356.88,566.4Z"/><path class="cls-12" d="M367.79,561.86c.18,0,.41.06.51-.1s0-.29,0-.43c-.38-.77-1.75-2.63-2.7-1.66C364.47,560.79,367,561.66,367.79,561.86Z"/><path class="cls-12" d="M371.34,558.77c-.22,0-1.48-1.24-1.89-1.41s-2-.77-2.34-.37C366.17,558.1,370.87,558.79,371.34,558.77Z"/><path class="cls-12" d="M307.62,589c.05.18.15.38.34.39s.27-.13.35-.26c.46-.73,1.36-2.86,0-3.17C306.82,585.64,307.39,588.28,307.62,589Z"/><path class="cls-12" d="M312.09,590.5c-.12-.19.3-1.91.24-2.35S312,586,311.44,586C310,585.72,311.83,590.1,312.09,590.5Z"/><path class="cls-12" d="M259.26,586.88a7.94,7.94,0,0,1,2.44-2.68c.71-.48,2.31-1.5,3.16-1.15-.28,1-1.59,1.94-2.41,2.49a9.48,9.48,0,0,1-1.57.84A8.62,8.62,0,0,0,259.26,586.88Z"/><path class="cls-12" d="M249.26,580.58c-.18,0-.41,0-.48-.18a.45.45,0,0,1,.11-.42c.51-.7,2.17-2.31,2.94-1.18C252.72,580.08,250.05,580.52,249.26,580.58Z"/><path class="cls-12" d="M246.27,576.94c.22,0,1.67-1,2.1-1.08s2.1-.42,2.37,0C251.49,577.14,246.74,577,246.27,576.94Z"/><path class="cls-12" d="M250.29,567.23c-.13-.12-.27-.3-.2-.47s.24-.19.39-.21c.85-.1,3.16,0,2.87,1.36C253,569.42,250.87,567.77,250.29,567.23Z"/><path class="cls-12" d="M250.92,562.57c.12.19,1.85.56,2.22.8s1.74,1.26,1.59,1.76C254.32,566.53,251.17,563,250.92,562.57Z"/><path class="cls-12" d="M373.22,547.11c-.5.14-2.45-2.57-3.25-1.13S372.61,547.28,373.22,547.11Z"/><path class="cls-12" d="M378,542.13a4.58,4.58,0,0,0,2.46.2c.22,0,.5-.18.45-.4a.42.42,0,0,0-.23-.24,4.87,4.87,0,0,0-3.6-.54"/><path class="cls-12" d="M351.2,527.14c-.78.35-2.68-1-2.11-1.86C349.87,524.11,350.91,527.27,351.2,527.14Z"/><path class="cls-12" d="M347.87,525.91a3,3,0,0,1,.58,2.44,3.07,3.07,0,0,1-.58-2.34"/><path class="cls-12" d="M339.69,538.17a2.61,2.61,0,0,1,2.3-2,.49.49,0,0,1,.3.06.33.33,0,0,1,0,.41.84.84,0,0,1-.34.28,10.38,10.38,0,0,1-2.72,1.11"/><path class="cls-12" d="M345.3,538.67a2.84,2.84,0,0,1,1.87-.9.56.56,0,0,1,.49.14.42.42,0,0,1,0,.52,1,1,0,0,1-.5.28,4.12,4.12,0,0,1-1.88.13"/><path class="cls-12" d="M332.38,552c-.44-1-1-2-2-2.27A3.24,3.24,0,0,0,332,552"/><path class="cls-12" d="M330.61,554.58c-1.07-.1-1.91-1.07-3-1.1a.33.33,0,0,0-.29.11c-.11.17.11.36.3.43a6.6,6.6,0,0,0,3.26.42"/><path class="cls-12" d="M297.68,543.71s3.77-2.15,3.95-.61C301.74,544,297.68,543.71,297.68,543.71Z"/><path class="cls-12" d="M304.29,533.61c.12-.22,3.53.22,2.69,1.4S304.61,533.93,304.29,533.61Z"/><path class="cls-12" d="M309.4,533.51a6.18,6.18,0,0,1-1.93-3.26,3.41,3.41,0,0,1,1.63.91A4.17,4.17,0,0,1,309.4,533.51Z"/><path class="cls-12" d="M332.05,536a3.85,3.85,0,0,0-.89-2.32c-.3,0-.36.45-.31.75a10.19,10.19,0,0,0,1.29,3.92A20.69,20.69,0,0,0,332.05,536Z"/><path class="cls-12" d="M327.46,535.49c-.86.56.81,3.31,1.9,2.49C330.24,537.33,328.08,535.08,327.46,535.49Z"/><path class="cls-12" d="M321.5,539.62c.59-.62,2.86-.07,2.65.94C323.86,541.94,321.72,539.39,321.5,539.62Z"/><path class="cls-12" d="M325.05,539.52a2.92,2.92,0,0,1-1.44-2,3.09,3.09,0,0,1,1.4,2"/><path class="cls-12" d="M274.81,566.29a2.6,2.6,0,0,1-1.73,2.55.44.44,0,0,1-.3,0,.32.32,0,0,1-.14-.39.9.9,0,0,1,.26-.36,10.91,10.91,0,0,1,2.36-1.74"/><path class="cls-12" d="M269.25,567.18a2.81,2.81,0,0,1-1.59,1.34.57.57,0,0,1-.51,0,.43.43,0,0,1-.09-.52,1.07,1.07,0,0,1,.41-.38,4.16,4.16,0,0,1,1.8-.59"/><path class="cls-12" d="M278.51,551.13c.67.82,1.48,1.71,2.53,1.7a3.27,3.27,0,0,0-2.13-1.88"/><path class="cls-12" d="M279.59,548.15c1.05-.16,2.11.57,3.15.33.1,0,.22-.07.25-.17s-.19-.33-.39-.35a6.71,6.71,0,0,0-3.26.4"/><path class="cls-12" d="M314.17,550.6s-3.12,3-3.68,1.55C310.17,551.33,314.17,550.6,314.17,550.6Z"/><path class="cls-12" d="M310.24,562c-.06.25-3.46.66-2.94-.69S309.86,561.78,310.24,562Z"/><path class="cls-12" d="M305.32,563.35A6.26,6.26,0,0,1,308,566a3.5,3.5,0,0,1-1.8-.47A4.29,4.29,0,0,1,305.32,563.35Z"/><path class="cls-12" d="M282.74,566.47a3.84,3.84,0,0,0,1.43,2c.29-.1.24-.52.12-.81a10.17,10.17,0,0,0-2.21-3.48A18.06,18.06,0,0,0,282.74,566.47Z"/><path class="cls-12" d="M287.33,565.88c.69-.75-1.6-3-2.46-2C284.18,564.78,286.82,566.43,287.33,565.88Z"/><path class="cls-12" d="M292.09,560.41c-.42.75-2.76.78-2.8-.26C289.23,558.74,291.94,560.69,292.09,560.41Z"/><path class="cls-12" d="M288.67,561.38c.8.35,1.68.8,1.91,1.63a3.07,3.07,0,0,1-1.85-1.55"/><path class="cls-13" d="M272.33,597.33c-.79.23-2.05-1-2.18-.18a1.45,1.45,0,0,0,1.37,1.67A2.89,2.89,0,0,0,271,600a1,1,0,0,0,.56,1.06,3,3,0,0,0-.65,1.32,1.06,1.06,0,0,0,.68,1.18,2.92,2.92,0,0,0-.63,3.78,1.41,1.41,0,0,0-1.23.9,2.69,2.69,0,0,0,1,3.33.71.71,0,0,0-1.1.41,1.49,1.49,0,0,0,.4,1.3,13.43,13.43,0,0,1,1,1,.78.78,0,0,0-1.18.05,1.3,1.3,0,0,0-.09,1.31,3.79,3.79,0,0,0,.85,1.07c-.68-.26-1.37.57-1.27,1.29a3.25,3.25,0,0,0,1.22,1.76,1.56,1.56,0,0,0,.29,2.44,1.21,1.21,0,0,0,.54,1.89c2.36-5.5,2.62-11.67,2.42-17.65a43.31,43.31,0,0,0-.94-8.5"/><polygon class="cls-5" points="517.47 779.7 372.4 859.46 165.72 739.91 314.6 661.96 517.47 779.7"/><g class="cls-1"><polygon class="cls-17" points="897.98 350.26 517.47 571.64 314.6 453.89 695.11 232.52 897.98 350.26"/></g><g class="cls-1"><polygon class="cls-18" points="517.47 571.64 517.47 779.7 314.6 661.96 314.6 453.89 517.47 571.64"/></g><g class="cls-1"><polygon class="cls-8" points="897.98 558.33 517.47 779.7 517.47 571.64 897.98 350.26 897.98 558.33"/><path class="cls-17" d="M531.82,754.76V579.89l.65-.38L883.64,375.2V550.08l-.65.38Zm2.61-173.37V750.23L881,548.58V379.74Z"/></g><rect class="cls-17" x="531.82" y="580.64" width="2.61" height="171.86"/><rect class="cls-17" x="547" y="571.8" width="2.61" height="171.86"/><rect class="cls-17" x="562.18" y="562.97" width="2.61" height="171.86"/><rect class="cls-17" x="577.37" y="554.14" width="2.61" height="171.86"/><rect class="cls-17" x="592.55" y="545.3" width="2.61" height="171.86"/><rect class="cls-17" x="607.73" y="536.47" width="2.61" height="171.86"/><rect class="cls-17" x="622.91" y="527.64" width="2.61" height="171.86"/><rect class="cls-17" x="638.1" y="518.8" width="2.61" height="171.86"/><rect class="cls-17" x="653.28" y="509.97" width="2.61" height="171.86"/><rect class="cls-17" x="668.47" y="501.14" width="2.61" height="171.86"/><rect class="cls-17" x="683.65" y="492.3" width="2.61" height="171.86"/><rect class="cls-17" x="698.83" y="483.47" width="2.61" height="171.86"/><rect class="cls-17" x="714.01" y="474.64" width="2.61" height="171.86"/><rect class="cls-17" x="729.2" y="465.8" width="2.61" height="171.86"/><rect class="cls-17" x="744.38" y="456.97" width="2.61" height="171.86"/><rect class="cls-17" x="759.56" y="448.14" width="2.61" height="171.86"/><rect class="cls-17" x="774.75" y="439.3" width="2.61" height="171.86"/><rect class="cls-17" x="789.93" y="430.47" width="2.61" height="171.86"/><rect class="cls-17" x="805.11" y="421.64" width="2.61" height="171.86"/><rect class="cls-17" x="820.3" y="412.8" width="2.61" height="171.86"/><rect class="cls-17" x="835.48" y="403.97" width="2.61" height="171.86"/><rect class="cls-17" x="850.66" y="395.14" width="2.61" height="171.86"/><rect class="cls-17" x="865.84" y="386.3" width="2.61" height="171.86"/><rect class="cls-17" x="881.03" y="377.47" width="2.61" height="171.86"/><path class="cls-8" d="M503.13,754.79,328.94,653.7V478.8L503.13,579.9ZM331.55,652.2l169,98.06V581.4l-169-98.07Z"/><rect class="cls-8" x="328.94" y="481.07" width="2.61" height="171.88"/><rect class="cls-8" x="344.54" y="490.12" width="2.61" height="171.88"/><rect class="cls-8" x="360.14" y="499.17" width="2.61" height="171.88"/><rect class="cls-8" x="375.74" y="508.22" width="2.61" height="171.88"/><rect class="cls-8" x="391.34" y="517.28" width="2.61" height="171.88"/><rect class="cls-8" x="406.93" y="526.33" width="2.61" height="171.88"/><rect class="cls-8" x="422.53" y="535.38" width="2.61" height="171.88"/><rect class="cls-8" x="438.13" y="544.44" width="2.61" height="171.88"/><rect class="cls-8" x="453.73" y="553.49" width="2.61" height="171.88"/><rect class="cls-8" x="469.32" y="562.54" width="2.61" height="171.88"/><rect class="cls-8" x="484.92" y="571.6" width="2.61" height="171.88"/><rect class="cls-8" x="500.52" y="580.65" width="2.61" height="171.88"/><path class="cls-8" d="M517.45,555.06,343.22,453.85l1.94-1.12,350-203.64L869.36,350.3l-1.94,1.13Zm-169-101.21,169,98.19L864.17,350.3l-169-98.19Z"/><rect class="cls-8" x="430.33" y="404.46" width="2.61" height="198.49" transform="translate(-220.72 623.94) rotate(-59.85)"/><rect class="cls-8" x="445.52" y="395.62" width="2.61" height="198.49" transform="translate(-205.52 632.67) rotate(-59.85)"/><rect class="cls-8" x="460.7" y="386.78" width="2.61" height="198.49" transform="translate(-190.32 641.4) rotate(-59.85)"/><rect class="cls-8" x="475.89" y="377.94" width="2.61" height="198.49" transform="translate(-175.12 650.14) rotate(-59.85)"/><rect class="cls-8" x="491.08" y="369.11" width="2.61" height="198.49" transform="translate(-159.92 658.87) rotate(-59.85)"/><rect class="cls-8" x="506.27" y="360.27" width="2.61" height="198.49" transform="translate(-144.72 667.61) rotate(-59.85)"/><rect class="cls-8" x="521.45" y="351.43" width="2.61" height="198.49" transform="translate(-129.52 676.34) rotate(-59.85)"/><rect class="cls-8" x="536.64" y="342.6" width="2.61" height="198.49" transform="translate(-114.32 685.08) rotate(-59.85)"/><rect class="cls-8" x="551.83" y="333.76" width="2.61" height="198.49" transform="translate(-99.12 693.81) rotate(-59.85)"/><rect class="cls-8" x="567.02" y="324.92" width="2.61" height="198.49" transform="translate(-83.92 702.55) rotate(-59.85)"/><rect class="cls-8" x="582.2" y="316.09" width="2.61" height="198.49" transform="translate(-68.72 711.28) rotate(-59.85)"/><rect class="cls-8" x="597.39" y="307.25" width="2.61" height="198.49" transform="translate(-53.52 720.01) rotate(-59.85)"/><rect class="cls-8" x="612.58" y="298.41" width="2.61" height="198.49" transform="translate(-38.32 728.75) rotate(-59.85)"/><rect class="cls-8" x="627.77" y="289.58" width="2.61" height="198.49" transform="translate(-23.12 737.48) rotate(-59.85)"/><rect class="cls-8" x="642.96" y="280.74" width="2.61" height="198.49" transform="translate(-7.92 746.22) rotate(-59.85)"/><rect class="cls-8" x="658.14" y="271.9" width="2.61" height="198.49" transform="translate(7.28 754.95) rotate(-59.85)"/><rect class="cls-8" x="673.33" y="263.07" width="2.61" height="198.49" transform="translate(22.48 763.69) rotate(-59.85)"/><rect class="cls-8" x="688.52" y="254.23" width="2.61" height="198.49" transform="translate(37.69 772.42) rotate(-59.85)"/><rect class="cls-8" x="703.71" y="245.39" width="2.61" height="198.49" transform="translate(52.88 781.15) rotate(-59.85)"/><rect class="cls-8" x="718.89" y="236.55" width="2.61" height="198.49" transform="translate(68.09 789.89) rotate(-59.85)"/><rect class="cls-8" x="734.08" y="227.72" width="2.61" height="198.49" transform="translate(83.29 798.63) rotate(-59.85)"/><rect class="cls-8" x="749.27" y="218.88" width="2.61" height="198.49" transform="translate(98.49 807.36) rotate(-59.85)"/><rect class="cls-8" x="764.46" y="210.04" width="2.61" height="198.49" transform="translate(113.69 816.1) rotate(-59.85)"/><rect class="cls-8" x="779.64" y="201.21" width="2.61" height="198.49" transform="translate(128.89 824.83) rotate(-59.85)"/><path class="cls-18" d="M522.76,670.26h0a4.63,4.63,0,0,1,2-3.83h0a2,2,0,0,1,3.22,1.7h0A4.65,4.65,0,0,1,526,672h0A2,2,0,0,1,522.76,670.26Z"/><path class="cls-8" d="M512.75,578.22h0a4.69,4.69,0,0,0-1.95-3.83h0a2,2,0,0,0-3.23,1.7h0a4.66,4.66,0,0,0,1.95,3.83h0A2,2,0,0,0,512.75,578.22Z"/><path class="cls-8" d="M512.75,670h0a4.69,4.69,0,0,0-1.95-3.83h0a2,2,0,0,0-3.23,1.7h0a4.66,4.66,0,0,0,1.95,3.83h0A2,2,0,0,0,512.75,670Z"/><path class="cls-8" d="M512.75,766h0a4.69,4.69,0,0,0-1.95-3.84h0a2,2,0,0,0-3.23,1.7h0a4.63,4.63,0,0,0,1.95,3.83h0A2,2,0,0,0,512.75,766Z"/><path class="cls-8" d="M324.8,469.71h0a4.63,4.63,0,0,0-1.95-3.83h0a2,2,0,0,0-3.22,1.7h0a4.65,4.65,0,0,0,1.94,3.83h0A2,2,0,0,0,324.8,469.71Z"/><path class="cls-8" d="M324.8,561.44h0a4.63,4.63,0,0,0-1.95-3.83h0a2,2,0,0,0-3.22,1.7h0a4.65,4.65,0,0,0,1.94,3.83h0A2,2,0,0,0,324.8,561.44Z"/><path class="cls-8" d="M324.8,657.51h0a4.63,4.63,0,0,0-1.95-3.83h0a2,2,0,0,0-3.22,1.7h0a4.62,4.62,0,0,0,1.94,3.83h0A2,2,0,0,0,324.8,657.51Z"/><path class="cls-18" d="M522.76,578.53h0a4.63,4.63,0,0,1,2-3.83h0a2,2,0,0,1,3.22,1.7h0a4.65,4.65,0,0,1-1.94,3.83h0A2,2,0,0,1,522.76,578.53Z"/><path class="cls-18" d="M583.66,542.76h0a4.69,4.69,0,0,1,2-3.83h0a2,2,0,0,1,3.23,1.7h0a4.63,4.63,0,0,1-2,3.83h0A2,2,0,0,1,583.66,542.76Z"/><path class="cls-18" d="M644.57,507h0a4.66,4.66,0,0,1,1.95-3.83h0a2,2,0,0,1,3.23,1.7h0a4.66,4.66,0,0,1-2,3.83h0A2,2,0,0,1,644.57,507Z"/><path class="cls-18" d="M705.48,471.22h0a4.63,4.63,0,0,1,1.95-3.83h0a2,2,0,0,1,3.23,1.7h0a4.69,4.69,0,0,1-1.95,3.83h0A2,2,0,0,1,705.48,471.22Z"/><path class="cls-18" d="M766.39,435.45h0a4.62,4.62,0,0,1,1.94-3.83h0a2,2,0,0,1,3.23,1.69h0a4.61,4.61,0,0,1-1.95,3.83h0A2,2,0,0,1,766.39,435.45Z"/><path class="cls-18" d="M827.29,399.67h0a4.69,4.69,0,0,1,2-3.83h0a2,2,0,0,1,3.23,1.7h0a4.66,4.66,0,0,1-2,3.83h0A2,2,0,0,1,827.29,399.67Z"/><path class="cls-18" d="M888.2,363.9h0a4.66,4.66,0,0,1,1.95-3.83h0a2,2,0,0,1,3.23,1.7h0a4.69,4.69,0,0,1-2,3.83h0A2,2,0,0,1,888.2,363.9Z"/><path class="cls-18" d="M888.2,458.27h0a4.66,4.66,0,0,1,1.95-3.83h0a2,2,0,0,1,3.23,1.7h0a4.69,4.69,0,0,1-2,3.83h0A2,2,0,0,1,888.2,458.27Z"/><path class="cls-18" d="M522.23,768.58h0a4.63,4.63,0,0,1,1.95-3.83h0a2,2,0,0,1,3.22,1.7h0a4.65,4.65,0,0,1-1.94,3.83h0A2,2,0,0,1,522.23,768.58Z"/><path class="cls-18" d="M583.22,733.05h0a4.69,4.69,0,0,1,1.95-3.83h0a2,2,0,0,1,3.23,1.7h0a4.66,4.66,0,0,1-1.95,3.83h0A2,2,0,0,1,583.22,733.05Z"/><path class="cls-18" d="M644.22,697.53h0a4.63,4.63,0,0,1,1.95-3.83h0a2,2,0,0,1,3.23,1.7h0a4.69,4.69,0,0,1-1.95,3.83h0A2,2,0,0,1,644.22,697.53Z"/><path class="cls-18" d="M705.21,662h0a4.69,4.69,0,0,1,1.95-3.83h0a2,2,0,0,1,3.23,1.7h0a4.63,4.63,0,0,1-1.95,3.83h0A2,2,0,0,1,705.21,662Z"/><path class="cls-18" d="M766.21,626.47h0a4.66,4.66,0,0,1,1.95-3.83h0a2,2,0,0,1,3.23,1.7h0a4.69,4.69,0,0,1-1.95,3.83h0A2,2,0,0,1,766.21,626.47Z"/><path class="cls-18" d="M827.2,591h0a4.69,4.69,0,0,1,1.95-3.83h0a2,2,0,0,1,3.23,1.7h0a4.63,4.63,0,0,1-2,3.83h0A2,2,0,0,1,827.2,591Z"/><path class="cls-18" d="M888.2,555.42h0a4.66,4.66,0,0,1,1.95-3.83h0a2,2,0,0,1,3.23,1.7h0a4.69,4.69,0,0,1-2,3.83h0A2,2,0,0,1,888.2,555.42Z"/><g class="cls-1"><polygon class="cls-19" points="534.49 581.39 534.49 744.23 876.29 545.51 876.29 382.67 534.49 581.39"/></g><polygon class="cls-17" points="534.49 744.23 534.49 750.69 881.72 548.68 876.29 545.58 534.49 744.23"/><polygon class="cls-18" points="876.29 382.67 881.72 379.44 881.72 548.68 876.29 545.58 876.29 382.67"/><g class="cls-20"><polygon class="cls-21" points="609.93 700.39 552.93 570.67 534.49 581.39 534.49 627.75 561 653.01 534.49 643.4 534.49 744.23 609.93 700.39"/></g><g class="cls-20"><polygon class="cls-21" points="876.29 382.67 876.29 472.76 837.93 404.98 876.29 382.67"/></g><polygon class="cls-4" points="355.4 579.82 355.4 591.81 335.89 580.47 335.89 568.47 355.4 579.82"/><polygon class="cls-4" points="492.99 649.12 492.99 661.12 473.47 649.78 473.47 637.78 492.99 649.12"/><polygon class="cls-4" points="355.4 596.38 355.4 608.38 335.89 597.04 335.89 585.04 355.4 596.38"/><polygon class="cls-22" points="463.57 617.83 463.57 743.02 372.18 689.83 372.18 564.63 463.57 617.83"/><polygon class="cls-19" points="433.76 725.67 463.57 743.02 463.57 673.12 433.76 725.67"/><polygon class="cls-19" points="451.72 610.93 408.03 710.69 393.07 701.99 404.68 680.39 385.47 697.56 381.97 695.52 415.17 589.65 430.63 598.66 409.16 644.81 443.89 606.37 451.72 610.93"/><polygon class="cls-5" points="463.57 743.02 463.57 749.49 366.76 692.96 372.18 689.83 463.57 743.02"/><polygon class="cls-8" points="372.18 564.63 366.76 561.13 366.76 692.96 372.18 689.83 372.18 564.63"/><path class="cls-23" d="M417.88,715.05a1.3,1.3,0,0,1-1.3-1.3V598.66a1.3,1.3,0,1,1,2.6,0V713.75A1.3,1.3,0,0,1,417.88,715.05Z"/><path class="cls-23" d="M422.17,673.24A11.09,11.09,0,0,1,417.3,672c-5.85-2.87-10.44-9.75-10.44-15.66,0-2.86,1.1-5.13,3.1-6.37,2.23-1.39,5.33-1.29,8.5.26,5.85,2.88,10.44,9.76,10.44,15.66,0,2.87-1.1,5.13-3.1,6.37A6.74,6.74,0,0,1,422.17,673.24ZM413.6,651.6a4.16,4.16,0,0,0-2.26.59,4.61,4.61,0,0,0-1.87,4.15c0,4.91,4,10.89,9,13.32,2.34,1.15,4.51,1.29,6,.39a4.63,4.63,0,0,0,1.87-4.16c0-4.91-4-10.88-9-13.32A8.54,8.54,0,0,0,413.6,651.6Z"/><path class="cls-23" d="M458.15,740.78a1.3,1.3,0,0,1-1.3-1.31V622.85l-77.94-45.37v115.1a1.31,1.31,0,1,1-2.61,0V575.21a1.29,1.29,0,0,1,.66-1.13,1.33,1.33,0,0,1,1.31,0L458.81,621a1.29,1.29,0,0,1,.64,1.12V739.47A1.3,1.3,0,0,1,458.15,740.78Z"/><path class="cls-24" d="M835.21,562.15c0-.31-.24-.63-.73-.91a5.5,5.5,0,0,0-1.9-.65V531a12.82,12.82,0,0,0,6-1.28c5.52-2.86,7.21-10.09,6.53-16.27s-3.06-12.13-3.18-18.34a25.54,25.54,0,0,1,2.2-10.86c1-2.18,2.29-4.49,1.68-6.8-.37-1.42-1.43-2.56-2-3.92-1.7-4.26,1.92-9.21.45-13.55-1-2.88-3.84-4.47-6.88-5.23a14.63,14.63,0,0,0,1.38-6.31c0-6.31-3.68-11.42-8.21-11.42s-8.2,5.11-8.2,11.42a14.26,14.26,0,0,0,1.83,7.11,16.36,16.36,0,0,0-2.2,1c-3.86,2.24-6.78,6.36-6.82,10.82,0,3.57,1.67,6.89,2.86,10.25,5.25,14.78.8,31.07,1.48,46.74a5.72,5.72,0,0,0,.58,2.69,3.23,3.23,0,0,0,1.93,1.45,6.09,6.09,0,0,0,3,1.44,48.83,48.83,0,0,0,5.56.92v29.67a5.76,5.76,0,0,0-1.87.64h0c-.49.29-.73.6-.73.91h0l-5.83,5.24a27.11,27.11,0,0,0-2.48,1.22l-.1.06c-2,1.16-3,2.46-3,3.77h0c0,1.31,1,2.62,3,3.8.71.4,1.44.74,2.17,1.07l18.47-10.74-4.92-4.42Z"/><path class="cls-24" d="M669.62,661.62c0-.32-.25-.63-.73-.92a6,6,0,0,0-1.9-.65V630.48a12.69,12.69,0,0,0,6-1.28c5.52-2.85,7.2-10.08,6.53-16.26s-3.06-12.13-3.18-18.34a25.4,25.4,0,0,1,2.2-10.87c1-2.17,2.28-4.49,1.68-6.79-.38-1.42-1.43-2.56-2-3.93-1.71-4.26,1.92-9.2.45-13.55-1-2.87-3.84-4.47-6.88-5.22a14.79,14.79,0,0,0,1.37-6.32c0-6.3-3.67-11.42-8.2-11.42s-8.2,5.12-8.2,11.42a14.27,14.27,0,0,0,1.83,7.12,16.48,16.48,0,0,0-2.21,1c-3.86,2.23-6.77,6.36-6.81,10.82,0,3.57,1.66,6.88,2.86,10.24,5.25,14.79.79,31.08,1.48,46.75a5.8,5.8,0,0,0,.57,2.68,3.24,3.24,0,0,0,1.94,1.45,5.93,5.93,0,0,0,3,1.44,48.85,48.85,0,0,0,5.56.93v29.66a5.79,5.79,0,0,0-1.87.65h0c-.49.28-.73.6-.74.91h0l-5.82,5.24a21.9,21.9,0,0,0-2.48,1.22l-.1,0c-2,1.17-3,2.47-3,3.77h0c0,1.14.8,2.27,2.34,3.33l19.15-11.14-2.75-2.48Z"/><path class="cls-24" d="M732.78,625.46c0-.32-.24-.63-.73-.91l0,0a6,6,0,0,0-1.86-.64V594.23a51.4,51.4,0,0,0,5.55-.93,6,6,0,0,0,3-1.44,3.23,3.23,0,0,0,1.93-1.45,5.71,5.71,0,0,0,.58-2.68c.68-15.68-3.78-32,1.48-46.75,1.19-3.36,2.89-6.68,2.86-10.24,0-4.46-3-8.59-6.82-10.82a16.54,16.54,0,0,0-2.21-1,14.14,14.14,0,0,0,1.84-7.11c0-6.31-3.67-11.42-8.2-11.42s-8.21,5.11-8.21,11.42a14.64,14.64,0,0,0,1.38,6.32c-3.05.75-5.91,2.35-6.88,5.22-1.48,4.35,2.15,9.29.45,13.55-.55,1.36-1.61,2.5-2,3.93-.61,2.3.7,4.61,1.68,6.79a25.69,25.69,0,0,1,2.2,10.86c-.13,6.22-2.51,12.17-3.19,18.35s1,13.4,6.54,16.26a12.8,12.8,0,0,0,6,1.28v29.57a5.89,5.89,0,0,0-1.89.65c-.49.29-.73.6-.73.92h0l-5.75,5.16a23.7,23.7,0,0,0-2.67,1.33c-2,1.17-3,2.48-3,3.79h0a4,4,0,0,0,1.92,3l19.19-11.16-2.38-2.14Z"/><path class="cls-24" d="M788.42,594.36c0-.25-.18-.49-.56-.71a4.37,4.37,0,0,0-1.46-.5V570.32a9.75,9.75,0,0,0,4.61-1c4.26-2.21,5.56-7.78,5-12.55s-2.36-9.37-2.45-14.16a19.64,19.64,0,0,1,1.69-8.38c.75-1.68,1.77-3.47,1.3-5.25a28.67,28.67,0,0,0-1.53-3c-1.31-3.28,1.49-7.1.35-10.45-.75-2.22-3-3.45-5.31-4a11.36,11.36,0,0,0,1.06-4.88c0-4.87-2.83-8.81-6.33-8.81s-6.33,3.94-6.33,8.81a11,11,0,0,0,1.43,5.52,12.62,12.62,0,0,0-1.72.78,10.16,10.16,0,0,0-5.26,8.34c0,2.76,1.29,5.32,2.21,7.91,4.05,11.41.61,24,1.14,36.08a4.44,4.44,0,0,0,.44,2.07,2.55,2.55,0,0,0,1.5,1.12,4.74,4.74,0,0,0,2.29,1.11,38.37,38.37,0,0,0,4.29.71v22.9a4.39,4.39,0,0,0-1.44.49h0c-.37.22-.56.46-.56.71h0l-4.5,4a17.78,17.78,0,0,0-1.91.94l-.08,0c-1.56.9-2.34,1.91-2.35,2.91h0a2.87,2.87,0,0,0,1.16,2.08L790,595.74l-1.54-1.38Z"/><path class="cls-24" d="M619,692.82c0-.24-.18-.48-.56-.7a4.39,4.39,0,0,0-1.46-.51V668.79a9.75,9.75,0,0,0,4.61-1c4.26-2.21,5.56-7.79,5-12.55s-2.36-9.37-2.45-14.16a19.55,19.55,0,0,1,1.7-8.39c.74-1.68,1.76-3.46,1.29-5.24a26.06,26.06,0,0,0-1.53-3c-1.31-3.28,1.49-7.1.35-10.45-.75-2.22-3-3.45-5.31-4a11.28,11.28,0,0,0,1.06-4.87c0-4.87-2.83-8.81-6.33-8.81s-6.33,3.94-6.33,8.81a11,11,0,0,0,1.43,5.52,13.9,13.9,0,0,0-1.72.77,10.19,10.19,0,0,0-5.26,8.35c0,2.76,1.29,5.32,2.21,7.91,4,11.41.61,24,1.14,36.08a4.32,4.32,0,0,0,.45,2.07,2.54,2.54,0,0,0,1.49,1.12,4.74,4.74,0,0,0,2.29,1.11,40.82,40.82,0,0,0,4.29.71v22.9a4.39,4.39,0,0,0-1.44.49h0c-.37.22-.56.46-.56.7h0l-4.5,4a17.78,17.78,0,0,0-1.91.94l-.08,0c-1.56.9-2.34,1.9-2.34,2.91h0a2.82,2.82,0,0,0,1.15,2.08l14.84-8.63L619,692.82Z"/><g class="cls-20"><path class="cls-21" d="M634.15,523.45l74,119.84s62-35.63,61.33-35.63-75.42-78-75.42-78l105,60.83,32.3-18.83-65.11-125-58.15,33.8,19.16,14.42-30.12-8.05Z"/></g><g class="cls-1"><polygon class="cls-13" points="452.2 750.88 417.79 770.68 330.55 720.24 364.96 700.44 452.2 750.88"/></g><g class="cls-1"><polygon class="cls-12" points="452.2 749.75 417.79 769.54 330.55 719.1 364.96 699.3 452.2 749.75"/></g><g class="cls-25"><ellipse class="cls-8" cx="586.07" cy="411.1" rx="102.67" ry="38.87"/></g><path class="cls-26" d="M586,411.63c-11,0-21.3-4.05-30.73-12-47.51-40.19-81.73-81.68-104.61-126.84-15.68-30.94-22.79-59.61-21.76-87.65C431.18,122.43,462.18,74.3,518.5,46c22-11.08,44.8-15.18,58.8-15.31h.31c82,0,149,52.53,163.06,127.73,6.15,33,1.85,66.11-13.14,101.24-12.09,28.34-29.25,55-54,84a464.7,464.7,0,0,1-56.85,56.12c-9.51,7.87-19.83,11.87-30.69,11.87Z"/><path class="cls-27" d="M586,412.93h0c-11.28,0-21.9-4.15-31.57-12.33-47.65-40.3-82-81.92-104.93-127.24-15.78-31.14-23-60-21.9-88.29,2.33-63.19,33.57-111.71,90.34-140.29,22.21-11.18,45.23-15.31,59.38-15.45h.3c82.66,0,150.24,53,164.36,128.79,6.19,33.25,1.87,66.62-13.22,102-12.15,28.47-29.37,55.28-54.22,84.38a467.25,467.25,0,0,1-57,56.27C607.75,408.84,597.14,412.93,586,412.93Zm-8.37-381h-.3c-13.85.14-36.42,4.19-58.22,15.17C463.21,75.24,432.47,123,430.17,185.17c-1,27.81,6.05,56.27,21.62,87,22.8,45,56.92,86.36,104.29,126.43,9.19,7.77,19.25,11.71,29.89,11.72s20.6-3.9,29.87-11.58a464.85,464.85,0,0,0,56.69-55.95c24.67-28.89,41.76-55.49,53.8-83.71,14.88-34.89,19.15-67.76,13.06-100.49C725.5,84,659,31.94,577.61,31.94Z"/><path class="cls-12" d="M709.9,164.09C699,105.28,646.38,61.93,577.61,61.93c-10.31.1-28.34,3.56-45,12-46.09,23.21-70.52,60.78-72.42,112.37-.95,25.74,6.9,49.66,18.4,72.35,23.46,46.3,57.61,83.86,96.9,117.09,7.36,6.23,13.81,6.11,21.26,0a431.78,431.78,0,0,0,53-52.34c19.75-23.12,37-47.89,49-76C710.13,220.64,715.3,193.07,709.9,164.09ZM673,234.21C661.84,261.45,644.78,285,625.61,307a438.58,438.58,0,0,1-39.54,39.74,385.69,385.69,0,0,1-30.16-29.34c-20.07-21.46-38-44.5-51.28-70.89-8.74-17.33-15.34-35.48-15.66-55-.65-39.17,16-69.68,50.31-88.64,57-31.52,126.33,0,141.47,63.45C686.36,189.91,682,212.38,673,234.21Z"/><path class="cls-28" d="M595.44,212.17v-6.91c0-15.32,0-30.64,0-46a11,11,0,0,1,11.29-11.22c5.84,0,11.22,5,11.26,10.88.11,21.25,0,42.51.07,63.76a8.77,8.77,0,0,1-4.41,7.77,24.48,24.48,0,0,1-13.44,4.22c-15.65,0-31.3,0-47,0-7.41,0-12.19-4.5-12.2-11.27s4.74-11.24,12.07-11.25Z"/><g class="cls-29"><ellipse class="cls-30" cx="704.33" cy="723.6" rx="20.6" ry="11.93" transform="translate(-2.05 2) rotate(-0.16)"/></g><path class="cls-3" d="M711.84,718.49a6.06,6.06,0,0,1-1.81,4.18c-1.95,2.08-3.2,4.45-2.23,6.26s5.29,1.25,7-.14,1.39-2.78,2.93-4.73,1.81-3.06,1.25-5.15S714.34,717.38,711.84,718.49Z"/><path class="cls-3" d="M697.22,714.31a5.88,5.88,0,0,1-2.37,3.62c-2.08,1.53-3.2,3.07-2.92,5.43s4.18,2.09,6.13,1.12,1.53-2,2.92-3.48,2.37-1.68,2.64-3.35-.13-3.48-1-3.75A4.81,4.81,0,0,0,697.22,714.31Z"/><path class="cls-31" d="M697.75,636.94s-9,10.22-8.48,15.7,6,10.22,6,10.22a2.07,2.07,0,0,0,1.5,2.49c2,.75,1.49-4.23-.25-6.48-.75-.5-2.49-4-2.49-5.73s6.23-6.23,6.73-8.48S700.74,636.19,697.75,636.94Z"/><path class="cls-30" d="M696.11,669.48s.46,38.71,1,45.58c.18,1.67,4.27,3.34,5.94.92,1.67-3.15.65-35.54,2.69-41.48C705.2,670.23,698.15,668.74,696.11,669.48Z"/><path class="cls-30" d="M696.48,671a19,19,0,0,0,8.35,9.65c5,2.6,5.76,7.06,6.13,11s.37,27.11.74,27.85,3.53,3.71,7.42,0c.38-10.77.56-45.67-.18-50.12S695.92,668.93,696.48,671Z"/><path class="cls-32" d="M711.33,634s8.91,5.94,9.84,8,1.3,7.8-.38,11.7-.55,18-1.11,20.79-8,3.89-12.62,3.15-11.7-3.9-11.7-9.28.93-15.41.56-17.82a42.11,42.11,0,0,1,.74-12.62c.21-.87,3.08-1.87,3.08-1.87S702.73,633.94,711.33,634Z"/><path class="cls-31" d="M721.17,642s10.23,12.38,9.48,20.85c.25,1-3.23,6.15-12,6.44.74-.21-1.75,1.79-3.25-.95,0-.5-3.49-.25-3.24-1.5s2.75-3.24,4-3.24,2.5,2,2.5,2,5.73-2.24,6.73-3.74c.49-1-5-7.72-7.48-10.72S718.16,642.35,721.17,642Z"/><path class="cls-33" d="M703.72,633.1a1,1,0,0,1,0,.28c-.07.64-.34,2.29-.37,3s.74,1.76,2.5,1.67,4.74-.93,5.66-3.06a48.88,48.88,0,0,1,.1-6.22Z"/><path class="cls-31" d="M713.93,628.42c-1.37,4.14-5.15,5.56-7.24,6.26s-4.6.42-6-1-2.64-7.66-1.81-13.09,5-8.63,9.89-7.66S717.69,617,713.93,628.42Z"/><path class="cls-6" d="M714.2,615.75s-6-2-9.81,2.16c-1.16.66-3,.16-3-1.17s.17-3.65,3.49-5.48S714,612.42,714.2,615.75Z"/><g class="cls-29"><ellipse class="cls-30" cx="846.06" cy="615.93" rx="11.93" ry="20.6" transform="translate(227.73 1460.24) rotate(-89.84)"/></g><path class="cls-3" d="M845.1,616.53a22.63,22.63,0,0,1-.17,4.67c-.36,1-3.44,2.29-5.64,1.5a8.21,8.21,0,0,1-4.23-3c-.71-1.05-3.19-2.33-3.79-3.52-.93-1.84.88-3.35,2.47-3.7a5.66,5.66,0,0,1,5,1.5C840.26,615.39,845.1,616.53,845.1,616.53Z"/><path class="cls-3" d="M862,611.56a22.63,22.63,0,0,1-.17,4.67c-.36,1-3.44,2.29-5.64,1.49a8.26,8.26,0,0,1-4.23-3c-.71-1.06-3.19-2.34-3.79-3.53-.93-1.84.88-3.34,2.47-3.7a5.66,5.66,0,0,1,5,1.5C857.14,610.41,862,611.56,862,611.56Z"/><path class="cls-34" d="M862.27,564.59a43.13,43.13,0,0,1-.6,11c-1.12,5.71,0,32.72.32,36.24,0,0-3.15,3.9-7.61,0,0-10.39-2.6-28.4-1.3-39.72S862.27,564.59,862.27,564.59Z"/><path class="cls-30" d="M862,566.26c-.18.65-.84,6.68-10,10.3-5,2.6-5.76,7.06-6.13,11s-.37,29-.74,29.7-3.53,3.71-7.42,0c-.38-10.77-.56-47.52.18-52S862.5,564.22,862,566.26Z"/><path class="cls-35" d="M856.9,532.24s3.49-.25,6.73,6,2,8,3,10.72a12.4,12.4,0,0,1,.75,6.49c-.25,2-4.49,7.72-8,8.22l-3.49.5s-2.24,1.5-2.49-2.24,1.74-4,2.74-3.74l1,.25s.24-2,1.24-2.5a2.1,2.1,0,0,1,2,.25s2-3.49,2-4.48-4-7.23-5.48-10.47S852.16,536.73,856.9,532.24Z"/><path class="cls-13" d="M847.33,531.09s-7.8,2.22-10.86,7.14c-1.19,1.91-1.3,7.8.37,11.7s0,17.72.6,20.51,8.5,4.17,13.14,3.43,11.86-3.9,11.69-9.28c-.47-15.26-.47-22.75-1.11-26.36a12,12,0,0,0-3.07-5.84S855.49,529.42,847.33,531.09Z"/><path class="cls-35" d="M851.83,508.39a10.9,10.9,0,0,0-7.94,1c-3.62,2.23-4.17,4.73-4,8.21s-.14,8.63,1.67,12.53,9.6.7,12-.83,4.87-7.66,4.59-12.39S856.14,509.23,851.83,508.39Z"/><path class="cls-35" d="M855.12,527.25s-1.82,3.64-1.82,5-2.81,3-6.45,2.32-4-1.49-4-1.49a17.83,17.83,0,0,0,2.32-4.8C845.69,526.09,855.12,527.25,855.12,527.25Z"/><path class="cls-35" d="M841.69,539s-4.24-3-6.23,1.5-2,10.72-3,12.21,1.24-4.23-1.25-7.23-2.49-8.22-2.49-8.22,2-1.37,2.24-2.25a1.52,1.52,0,0,0-.5-1.49s1.25-2.12,1-2.62-1-.5-1.5-.5a21.39,21.39,0,0,0-3.11.87c-1.25.38-2,2.25-2.37,3.37s.37,5.08.37,5.11c-.76,3.87-.18,13.24,3.12,17.2,3.74,4.49,8.72,3.24,11.22-.75S847.92,543.21,841.69,539Z"/><path class="cls-15" d="M262.19,633.68s.37,1.25-1,3-4.23,5.85-2.61,10,3.74,7.6,5.48,7.1,2.87-8.72,2.12-11.34-2.37-5.61-2-7.48S262.19,633.68,262.19,633.68Z"/><path class="cls-18" d="M261.82,632.81a2.31,2.31,0,0,0,.12,2.25c.75,1,2.62,1.74,3,.74S261.82,632.81,261.82,632.81Z"/><path class="cls-33" d="M277.31,639.75a8.87,8.87,0,0,1,4.82,4.82c1.5,3.66-.16,10.8-.16,10.8s2.16-5,5.32-7.48,3.49-3.49,3.49-3.49,0-2.66.83-3.49c.5.17.66,2.5.66,2.5s2.16-2.16,3.66-2.16c1.33.33-.17,3.82-1.5,5a5,5,0,0,1-3,1.17s-4.65,7.14-5.65,9-4.15,3.49-5.82,3.66S276,645.57,277.31,639.75Z"/><path class="cls-30" d="M275.52,720.53a3.92,3.92,0,0,0,1.56,3c1.59,1.21,6.74,3.14,5.38,4.92.24,1-3.09.9-5.35-.26s-3.38-2.73-4.21-2.67-1.16.09-1.54-.55.43-5.2.43-5.2S275.06,721.14,275.52,720.53Z"/><path class="cls-30" d="M261.28,722.35s-.5,2.24,2,4.48,5,3.24,5.49,4.74-3.49,2.24-6.24.5-3.74-4-4.48-4,0,.25-.75,0c0,0-1.16-.33-1.41-1.16a31.34,31.34,0,0,1,.83-5S261.11,722.6,261.28,722.35Z"/><path class="cls-33" d="M278.73,672c0,.75-.25,10.47-.75,20.69s-1,14.21-1,14.21-1,12-1.49,13.71-2.75,1-3.49,0c-.5-1.49.74-14.71-.5-23.18s-3.24-15.71-3.74-19.2S278.73,672,278.73,672Z"/><path class="cls-33" d="M278,675.73a13.8,13.8,0,0,1-7.09,8.89c-5,2.6-5.35,7.11-6.12,11-.58,2.89-5.43,15.73-3.58,27.44.13.82-.69,4.12-4.59.4-.37-10.76-.56-45.66.19-50.11S278.54,673.69,278,675.73Z"/><path class="cls-18" d="M264.4,638s-8.91,5.94-9.84,8-1.42,7.93,1.48,11c6.85,7.31-3,10.87-1,21.11.55,2.79,9,4.25,13.63,3.51s10.31-3,10.31-8.41-3.73-10.41,1-17c3.24-4.49-1.24-8.48-.91-14.36.11-1.91-3.15-3.16-3.15-3.16S272.56,636.36,264.4,638Z"/><path class="cls-33" d="M254.56,646a8.38,8.38,0,0,0,.24,9.78c3.73,5,9,8.22,10.71,8.72s11-1,13.72-4.48c.49.24,2.49-.5,2.74-1.5s-2-2.24-3.49-1.75a3.36,3.36,0,0,0-2,1.75s-7.72.75-9.47.75-6.48-7-7-9.23S257.06,645.21,254.56,646Z"/><path class="cls-18" d="M256.87,668.17s-3.32,6.31-2.66,17.28,1.88,27.22,1.22,30.21c3,1,16.07,4.36,21.72-2.29.33-7,1.33-24.93,2-31.24s0-11-1.66-14.29S263.19,667.84,256.87,668.17Z"/><path class="cls-36" d="M272,637.1a.81.81,0,0,0,0,.28c.08.64.34,2.28.38,3s-.74,1.76-2.51,1.67-4.73-.93-5.66-3.06a50.34,50.34,0,0,0-.09-6.22Z"/><path class="cls-33" d="M261.8,632.41c1.36,4.14,5.15,5.57,7.24,6.27s4.59.41,6-1,2.65-7.65,1.81-13.08-5-8.64-9.88-7.66S258,621,261.8,632.41Z"/><path class="cls-15" d="M271.66,621.3s-.33,4.16-3.82,5-4,2.16-4,2.16-.66-1.83-1.49-1-.5,2.5.5,4.16c.66,1.16,1.33,0,1.33,0s-.84,2.82-1.5,3c-.67-.17-4.82-6.65-3.49-12.47a8.33,8.33,0,0,1,9-6.64c2.33.33,5.32-.5,8.15,1.66s2.32,8.31.83,10c-.33-.5-.83-4.32-2.33-5.32A4,4,0,0,0,271.66,621.3Z"/><path class="cls-13" d="M320.78,663s5-.5,6.73,7a37.49,37.49,0,0,1-.5,17c-.5,1.5-3.24,15.46-5,17.7-.24,1-2.74,1.5-3-1.5s1.75-16.7,1.5-19.19-.75-10-2-13.21S318.53,664,320.78,663Z"/><g class="cls-29"><ellipse class="cls-30" cx="309.61" cy="746.13" rx="11.93" ry="20.6" transform="translate(-437.4 1053.62) rotate(-89.84)"/></g><g class="cls-29"><ellipse class="cls-30" cx="267.74" cy="727.41" rx="11.93" ry="20.6" transform="translate(-460.42 993.09) rotate(-89.84)"/></g><path class="cls-7" d="M308.65,746.74a22.63,22.63,0,0,1-.17,4.67c-.36,1-3.44,2.29-5.64,1.49a8.26,8.26,0,0,1-4.23-3c-.71-1.06-3.19-2.34-3.79-3.53-.93-1.84.88-3.34,2.47-3.7a5.66,5.66,0,0,1,5,1.5C303.81,745.59,308.65,746.74,308.65,746.74Z"/><path class="cls-7" d="M325.53,741.76a22.63,22.63,0,0,1-.17,4.67c-.36,1-3.44,2.29-5.64,1.5a8.27,8.27,0,0,1-4.23-3c-.71-1.06-3.19-2.33-3.79-3.52-.93-1.85.88-3.35,2.47-3.7a5.62,5.62,0,0,1,5,1.49C320.69,740.61,325.53,741.76,325.53,741.76Z"/><path class="cls-37" d="M325.82,694.79a43.13,43.13,0,0,1-.6,11c-1.12,5.71-.05,32.72.32,36.25,0,0-3.15,3.89-7.61,0,0-10.4-2.6-28.41-1.3-39.73S325.82,694.79,325.82,694.79Z"/><path class="cls-37" d="M325.5,696.46c-.18.65-.84,6.69-10,10.31-5,2.6-5.76,7.05-6.13,11s-.37,29-.74,29.7-3.53,3.71-7.43,0c-.37-10.77-.55-47.52.19-52S326.05,694.42,325.5,696.46Z"/><path class="cls-38" d="M310.88,661.29s-7.8,2.23-10.86,7.15c-1.19,1.9-1.3,7.79.37,11.69s.05,17.73.6,20.51,8.5,4.18,13.14,3.44,11.86-3.91,11.69-9.29c-.47-15.26-.47-22.75-1.11-26.35a12,12,0,0,0-3.07-5.85S319,659.62,310.88,661.29Z"/><path class="cls-33" d="M299.67,709a18.15,18.15,0,0,0-1.66,3.82c-.17,1.17,1.16,4.32,1.66,4s.33-2.49.33-2.49,2.5-2.16,2.17-4.65S299.67,709,299.67,709Z"/><path class="cls-13" d="M300.84,668.66s5-.5,6.73,7a37.48,37.48,0,0,1-.5,17c-.5,1.5-3.24,15.46-5,17.7-.25,1-2.74,1.5-3-1.5s1.75-16.7,1.5-19.19-.75-10-2-13.21S298.59,669.66,300.84,668.66Z"/><path class="cls-33" d="M315.38,638.6a10.87,10.87,0,0,0-7.94,1c-3.62,2.23-4.17,4.73-4,8.21s-.14,8.64,1.67,12.53,9.6.7,12-.83,4.87-7.66,4.59-12.39S319.69,639.43,315.38,638.6Z"/><path class="cls-33" d="M318.67,657.45s-1.82,3.64-1.82,5-2.81,3-6.45,2.32-4-1.49-4-1.49a17.79,17.79,0,0,0,2.32-4.81C309.24,656.29,318.67,657.45,318.67,657.45Z"/><path class="cls-39" d="M320.22,639.41s0-2.24-4.65-3.6-9.74.52-11.59,5-3.34,4.41-3.34,4.41a4.83,4.83,0,0,0,5,.36c.72,1.27-.79,2,.65,4.26a38.52,38.52,0,0,1,3.12,5.31c.48.76-.37-5.5.89-6s2.76-.93,2.94,2.07-1.57,3.2-1.57,3.2,2.44,2.05,4.4,3.6l2,1.54s4.61-5.13,5.72-9.84c.6-4.47-1.1-6.26-1.1-6.26l2.7,1.81s-.66-3.76-2.63-4.8A8.37,8.37,0,0,0,320.22,639.41Z"/><path class="cls-5" d="M649.51,826.15,482.76,923.24l-11-6.35L645.61,816.15l3.9,2.29A4.46,4.46,0,0,1,649.51,826.15Z"/><path class="cls-40" d="M511.29,902.42a5.21,5.21,0,0,1-5.21-5.21V873.6a5.22,5.22,0,0,1,10.43,0v23.61A5.22,5.22,0,0,1,511.29,902.42Z"/><path class="cls-40" d="M644.57,826.87a5.22,5.22,0,0,1-5.22-5.22v-23.6a5.22,5.22,0,1,1,10.43,0v23.6A5.22,5.22,0,0,1,644.57,826.87Z"/><path class="cls-41" d="M513.26,898.51a1.3,1.3,0,0,1-1.31-1.3V873.6a1.31,1.31,0,0,1,2.61,0v23.61A1.3,1.3,0,0,1,513.26,898.51Z"/><path class="cls-41" d="M646.53,823a1.31,1.31,0,0,1-1.31-1.31v-23.6a1.31,1.31,0,1,1,2.61,0v23.6A1.31,1.31,0,0,1,646.53,823Z"/><polygon class="cls-6" points="568.96 767.8 484.71 816.76 484.71 889.83 492.88 894.53 568.96 840.87 653.2 791.91 661.36 723.55 653.2 718.85 568.96 767.8"/><polygon class="cls-42" points="568.96 767.8 484.71 816.76 492.88 821.47 568.96 840.87 653.2 791.91 661.36 723.55 653.2 718.85 568.96 767.8"/><polygon class="cls-7" points="577.12 772.51 492.88 821.47 492.88 894.53 577.12 845.58 661.36 796.62 661.36 723.55 577.12 772.51"/><path class="cls-8" d="M496.33,888.53V823.45L657.9,729.56v65.07ZM498.94,825v59L655.3,793.13v-59Z"/><path class="cls-8" d="M520.2,823.42l.08,30.1c0,2.79,1.07,3.17,2.77,2.19s2.76-2.61,2.76-5.4l-.08-30.1,5-2.93.08,29.71c0,6.25-2.69,11.39-7.93,14.43s-8,1.05-8-5.2l-.07-29.71Z"/><path class="cls-8" d="M535.18,831.47l9.7-5.63v5.58l-9.7,5.63Z"/><path class="cls-8" d="M556.61,801.83c5.19-3,7.87-1,7.88,5.26v1.23l-5,2.92v-1.62c0-2.79-1-3.28-2.68-2.29s-2.66,2.6-2.65,5.39,1.08,4.34,4.57,5.83c4.48,1.93,5.89,4.34,5.91,8.8,0,6.25-2.69,11.39-7.93,14.43s-8,1.05-8-5.19v-2.4l5.05-2.93v2.79c0,2.78,1.08,3.17,2.78,2.19s2.76-2.61,2.75-5.4-1.08-4.34-4.58-5.83c-4.47-1.93-5.89-4.34-5.9-8.8C548.76,810,551.42,804.84,556.61,801.83Z"/><path class="cls-8" d="M567,796.26l16.49-9.57v5.58l-5.58,3.23L578,829l-5.34,3.1-.08-33.45L567,801.84Z"/><path class="cls-8" d="M586.36,794.4a16.08,16.08,0,0,1,8.07-14.51c5.24-3,8.11-1.14,8.12,5.11l.06,20.29a16.12,16.12,0,0,1-8.08,14.52c-5.23,3-8.1,1.13-8.12-5.12ZM591.75,812c0,2.79,1.07,3.23,2.77,2.24s2.76-2.66,2.75-5.45l0-21.07c0-2.79-1.08-3.23-2.77-2.25s-2.77,2.67-2.76,5.45Z"/><path class="cls-8" d="M618.19,805.63c-.29-.84-.48-1.34-.49-4.52l0-6.13c0-3.62-1.08-4.34-3.5-2.93l-1.85,1.07,0,15.89L607,812.1l-.1-39,8-4.68c5.53-3.2,7.91-1.63,7.93,4.39v3.07a14.13,14.13,0,0,1-3.47,9.89v.11c2.66-.27,3.55,2.12,3.56,6.19v6a10.69,10.69,0,0,0,.59,4.41Zm-5.9-30.07,0,12,2.08-1.21c2-1.15,3.2-2.86,3.19-6V776.5c0-2.79-.83-3.53-2.72-2.44Z"/><path class="cls-8" d="M632.78,774.55l7.32-4.25,0,5.58-7.33,4.25,0,11.43,9.22-5.35v5.58l-14.55,8.44-.1-39L642,752.76v5.57l-9.21,5.35Z"/></g></g></svg>