<svg xmlns="http://www.w3.org/2000/svg" xmlns:xlink="http://www.w3.org/1999/xlink" viewBox="0 0 350 290.67"><defs><style>.cls-1{fill:none;}.cls-2{isolation:isolate;}.cls-3{fill:#1e1e1e;}.cls-4{fill:#dc5e67;}.cls-5{fill:#b13f52;}.cls-6{fill:#ee767a;}.cls-7{fill:#91374d;}.cls-8{fill:#83e1f6;}.cls-9{fill:#69b2d0;}.cls-10{fill:#f3b34e;}.cls-11{fill:#fd5;}.cls-12{fill:#51504e;}.cls-13{fill:#5b5a59;}.cls-14{fill:#959189;}.cls-15{fill:#777570;}.cls-16{fill:#bcf5ff;}.cls-17{clip-path:url(#clip-path);}.cls-18{fill:#f1c08a;}.cls-19{fill:#daaa71;}.cls-20{fill:#ae865a;}.cls-21{opacity:0.2;mix-blend-mode:multiply;}</style><clipPath id="clip-path"><polygon class="cls-1" points="185.23 63.1 120.52 100.58 112.34 131.22 21.68 83.96 21.68 -16.33 185.43 -16.33 185.23 63.1"/></clipPath></defs><title>about_illustration</title><g class="cls-2"><g id="Layer_1" data-name="Layer 1"><polygon class="cls-3" points="236.35 281.79 335.7 224.05 114.33 95.6 15 153.34 236.35 281.79"/><g class="cls-2"><polygon class="cls-4" points="17.91 83.96 117.26 26.23 210.76 76.96 111.41 134.69 17.91 83.96"/><polygon class="cls-5" points="200.29 120.22 114.33 70.58 114.45 33.42 117.23 26.23 210.74 76.96 200.29 120.22"/><polygon class="cls-6" points="170.92 167.13 270.27 109.39 332.01 149.4 232.66 207.13 170.92 167.13"/><polygon class="cls-4" points="236.52 213.38 335.87 155.65 335.7 199.03 236.35 256.77 236.52 213.38"/><polygon class="cls-6" points="232.66 207.13 332.01 149.4 335.87 155.65 236.52 213.38 232.66 207.13"/><polygon class="cls-7" points="114.33 70.58 55.87 104.56 111.41 134.69 120.52 100.58 143.37 87.35 114.33 70.58"/><polygon class="cls-5" points="64.96 103.09 158.46 153.82 161.38 152.13 67.42 101.7 64.96 103.09"/><polygon class="cls-5" points="72.64 98.72 166.15 149.45 169.07 147.75 75.1 97.33 72.64 98.72"/><polygon class="cls-5" points="80.22 94.35 173.72 145.08 176.64 143.38 82.67 92.96 80.22 94.35"/><polygon class="cls-5" points="87.82 89.85 181.33 140.58 184.25 138.88 90.28 88.45 87.82 89.85"/><polygon class="cls-5" points="95.42 85.43 188.93 136.16 191.85 134.46 97.88 84.03 95.42 85.43"/><polygon class="cls-5" points="103.02 81.03 196.53 131.76 199.45 130.06 105.48 79.64 103.02 81.03"/><polygon class="cls-5" points="110.68 76.64 204.19 127.36 207.11 125.67 113.14 75.24 110.68 76.64"/><polygon class="cls-5" points="15 128.32 15.12 91.15 17.91 83.96 111.41 134.69 120.52 100.58 155.77 120.92 170.92 167.13 232.66 207.13 236.52 213.38 236.35 248.17 236.35 256.77 224.13 249.09 15 128.32"/><polygon class="cls-6" points="120.52 100.58 219.22 43.42 255.12 63.19 155.77 120.92 120.52 100.58"/><polygon class="cls-4" points="155.77 120.92 255.12 63.19 270.27 109.39 170.92 167.13 155.77 120.92"/></g><polygon class="cls-8" points="253.82 70.84 163.63 123.25 175.28 164.35 265.32 112.27 253.82 70.84"/><polygon class="cls-9" points="150.52 125.06 127.79 112.27 122.24 139.03 160.99 161.55 150.52 125.06"/><polygon class="cls-5" points="267.92 221.21 306.36 198.87 306.3 200.8 267.86 223.14 267.92 221.21"/><polygon class="cls-5" points="267.92 217.34 306.36 195 306.3 196.93 267.86 219.27 267.92 217.34"/><polygon class="cls-5" points="267.92 213.47 306.36 191.14 306.3 193.07 267.86 215.41 267.92 213.47"/><polygon class="cls-5" points="267.92 209.61 306.36 187.27 306.3 189.2 267.86 211.54 267.92 209.61"/><polygon class="cls-5" points="267.92 205.74 306.36 183.4 306.3 185.33 267.86 207.67 267.92 205.74"/><polygon class="cls-10" points="241.21 223.82 262.81 211.22 262.64 222.46 241.04 235.06 241.21 223.82"/><polygon class="cls-11" points="241.21 223.82 248.18 219.74 248.01 230.97 241.04 235.06 241.21 223.82"/><path class="cls-11" d="M251.93,219.73s3,2,0,6.81"/><path class="cls-11" d="M257.37,216.33s3,2,0,6.81"/><polygon class="cls-10" points="309.75 184.08 331.34 171.49 331.18 182.72 309.58 195.32 309.75 184.08"/><polygon class="cls-11" points="324.3 175.57 331.34 171.49 331.18 182.72 324.14 186.81 324.3 175.57"/><path class="cls-11" d="M315.57,182.87s3,2,0,6.81"/><path class="cls-11" d="M320.46,180s3,2,0,6.81"/><polygon class="cls-4" points="266.34 116.58 305.38 164.88 302.04 166.82 266.34 116.58"/><polygon class="cls-4" points="185.43 164.35 264.39 188.69 267.86 186.68 185.43 164.35"/><path class="cls-7" d="M192.44,206.33c11.72,6.76,21.18,23.17,21.14,36.61l-42.4-24.48C171.22,205,180.74,199.57,192.44,206.33Z"/><path class="cls-12" d="M212.52,235.34h0a30.75,30.75,0,0,0-12.86-25.28h0c-9.34-6.56-21.18-.33-21.31,11.22h0a30.73,30.73,0,0,0,12.86,25.27h0C200.55,253.12,212.39,246.89,212.52,235.34Z"/><path class="cls-12" d="M207.63,233s-1.95,14.51-2.25,14.66-8.15,4.7-8.15,4.7l-20-38.6,7.95-4.72Z"/><path class="cls-13" d="M205.34,239.57h0a30.77,30.77,0,0,0-12.85-25.28h0c-9.34-6.56-21.18-.33-21.31,11.21h0A30.73,30.73,0,0,0,184,250.78h0C193.38,257.34,205.21,251.12,205.34,239.57Z"/><path class="cls-14" d="M198.17,236.62h0A17.85,17.85,0,0,0,190.71,222h0c-5.42-3.8-12.28-.19-12.36,6.51h0a17.85,17.85,0,0,0,7.46,14.66h0C191.23,246.93,198.09,243.31,198.17,236.62Z"/><path class="cls-14" d="M194.69,235.19h0a11.54,11.54,0,0,0-4.84-9.52h0a5,5,0,0,0-8,4.22h0a11.59,11.59,0,0,0,4.84,9.52h0A5,5,0,0,0,194.69,235.19Z"/><path class="cls-15" d="M190.25,241l-.12-1.23a4.29,4.29,0,0,0,1.05-.23l.42,1.16A5.37,5.37,0,0,1,190.25,241Zm-1.4,0a5.75,5.75,0,0,1-1.33-.38l.47-1.14a4.84,4.84,0,0,0,1,.3Zm4-.91-.7-1a4.24,4.24,0,0,0,.8-.72l.94.8A5.1,5.1,0,0,1,192.84,240.05Zm-6.6-.2a10.39,10.39,0,0,1-1-.74l.82-.93a9,9,0,0,0,.91.72Zm-1.88-1.67c-.29-.32-.56-.66-.82-1l1-.73a11,11,0,0,0,.74.92Zm10.29-.21-1.1-.56a4.86,4.86,0,0,0,.38-1l1.2.3A6.6,6.6,0,0,1,194.65,238Zm-11.82-1.9a11.64,11.64,0,0,1-.59-1.17l1.13-.49a9.23,9.23,0,0,0,.53,1Zm11.25-.77v-.11A9.82,9.82,0,0,0,194,234l1.23-.13a11.81,11.81,0,0,1,.06,1.18Zm-12.29-1.62a9,9,0,0,1-.33-1.26l1.2-.25a10.59,10.59,0,0,0,.3,1.14Zm12.06-.83a9,9,0,0,0-.31-1.13l1.18-.39c.13.41.24.84.33,1.26Zm-12.59-1.72c0-.37,0-.74,0-1.12v-.21l1.23,0V230c0,.37,0,.7.05,1Zm11.86-.52a7.82,7.82,0,0,0-.53-1l1.07-.62a11.47,11.47,0,0,1,.59,1.16Zm-10.54-1.87-1.21-.28a6.29,6.29,0,0,1,.47-1.3l1.11.55A4.51,4.51,0,0,0,182.58,228.74Zm9.37-.16c-.23-.31-.48-.62-.74-.91l.91-.83a11.89,11.89,0,0,1,.83,1Zm-1.58-1.73a9.66,9.66,0,0,0-.87-.68l.61-1.08.14.1a9.7,9.7,0,0,1,.93.74Zm-6.83,0-.94-.8a5.69,5.69,0,0,1,1-.94l.72,1A4,4,0,0,0,183.54,226.8Zm4.94-1.19a4.54,4.54,0,0,0-1-.28l.17-1.22a5.44,5.44,0,0,1,1.34.36Zm-3.19-.06-.44-1.15a5.73,5.73,0,0,1,1.36-.32l.13,1.23A4.21,4.21,0,0,0,185.29,225.55Z"/><path class="cls-15" d="M191.72,234h0a6.21,6.21,0,0,0-2.6-5.11h0a2.69,2.69,0,0,0-4.31,2.26h0a6.21,6.21,0,0,0,2.6,5.11h0A2.7,2.7,0,0,0,191.72,234Z"/><path class="cls-5" d="M220.39,243.59l-1.55,2.54-11.21-6.62s.24-20-15.91-29.19-20.54,8.14-20.54,8.14L168.09,217l9.15-17.06,17-3,17.69,12.15s5.36,13.91,5.64,14.06S220.39,243.59,220.39,243.59Z"/><path class="cls-7" d="M49.76,123.92c11.72,6.77,21.18,23.18,21.14,36.62L28.5,136.06C28.54,122.62,38.06,117.17,49.76,123.92Z"/><path class="cls-12" d="M69.84,152.94h0A30.77,30.77,0,0,0,57,127.66h0c-9.35-6.56-21.18-.33-21.31,11.22h0a30.73,30.73,0,0,0,12.86,25.27h0C57.88,170.72,69.71,164.49,69.84,152.94Z"/><path class="cls-12" d="M65,150.64s-2,14.51-2.26,14.66-8.15,4.7-8.15,4.7l-20-38.6,8-4.72Z"/><path class="cls-13" d="M62.67,157.17h0a30.75,30.75,0,0,0-12.86-25.28h0c-9.34-6.56-21.18-.33-21.31,11.21h0a30.73,30.73,0,0,0,12.86,25.27h0C50.7,174.94,62.54,168.72,62.67,157.17Z"/><path class="cls-14" d="M55.5,154.22h0A17.85,17.85,0,0,0,48,139.55h0c-5.42-3.8-12.29-.19-12.36,6.51h0a17.82,17.82,0,0,0,7.46,14.66h0C48.55,164.53,55.42,160.91,55.5,154.22Z"/><path class="cls-14" d="M52,152.78h0a11.56,11.56,0,0,0-4.84-9.51h0a5,5,0,0,0-8,4.22h0A11.6,11.6,0,0,0,44,157h0A5,5,0,0,0,52,152.78Z"/><path class="cls-15" d="M47.57,158.61l-.11-1.23a5,5,0,0,0,1-.24l.42,1.16A6.07,6.07,0,0,1,47.57,158.61Zm-1.39-.05a5.48,5.48,0,0,1-1.33-.38l.48-1.13a4.6,4.6,0,0,0,1,.3Zm4-.91-.7-1a4.57,4.57,0,0,0,.8-.72l.93.8A5,5,0,0,1,50.17,157.65Zm-6.17,0-.44-.19a9.74,9.74,0,0,1-.94-.73l.82-.93a9,9,0,0,0,.91.72L44,157Zm-2.31-1.84a13.07,13.07,0,0,1-.82-1l1-.73a9.31,9.31,0,0,0,.74.92ZM52,155.57l-1.1-.56a4.35,4.35,0,0,0,.37-1l1.2.3A6.2,6.2,0,0,1,52,155.57Zm-11.82-1.9a9.15,9.15,0,0,1-.59-1.17L40.7,152a10.32,10.32,0,0,0,.53,1.05Zm11.5-.84-.26-.05a10.38,10.38,0,0,0,0-1.18l1.23-.12a11.66,11.66,0,0,1,.06,1.18Zm-12.55-1.54c-.13-.42-.24-.84-.33-1.27l1.21-.25c.08.39.18.77.29,1.14Zm12.06-.84a10.59,10.59,0,0,0-.3-1.14l1.17-.38a11.17,11.17,0,0,1,.34,1.26Zm-12.58-1.72a10.37,10.37,0,0,1-.06-1.12v-.16l1.23,0v.11a8.74,8.74,0,0,0,0,1.07Zm11.86-.51a10.4,10.4,0,0,0-.54-1.05l1.07-.62a11.54,11.54,0,0,1,.6,1.16Zm-10.54-1.88-1.21-.28a6.5,6.5,0,0,1,.47-1.3l1.1.55A4.49,4.49,0,0,0,39.91,146.34Zm9.36-.16a10.72,10.72,0,0,0-.74-.9l.91-.84a10.25,10.25,0,0,1,.83,1Zm-1.58-1.73a8.43,8.43,0,0,0-.87-.68l.61-1.08a11.08,11.08,0,0,1,1.08.84Zm-6.82,0-.94-.8a5.35,5.35,0,0,1,1-.94l.72,1A4.34,4.34,0,0,0,40.87,144.4Zm4.93-1.19a4.09,4.09,0,0,0-1-.28l.17-1.23a6,6,0,0,1,1.34.37Zm-3.18-.06L42.18,142a5.63,5.63,0,0,1,1.36-.33l.13,1.23A4.47,4.47,0,0,0,42.62,143.15Z"/><path class="cls-15" d="M49,151.56h0a6.21,6.21,0,0,0-2.6-5.11h0a2.69,2.69,0,0,0-4.31,2.26h0a6.24,6.24,0,0,0,2.6,5.12h0A2.7,2.7,0,0,0,49,151.56Z"/><path class="cls-5" d="M77.71,161.19l-1.55,2.54L65,157.11s.24-20-15.92-29.19-20.54,8.14-20.54,8.14l-3-1.68,9.07-16.89,17-3,17.69,12.15s5.36,13.91,5.64,14.06S77.71,161.19,77.71,161.19Z"/><path class="cls-7" d="M236.35,250.85a.82.82,0,0,1-.43-.12l-20.45-12.12a.84.84,0,1,1,.86-1.45l20.45,12.12a.84.84,0,0,1,.3,1.16A.86.86,0,0,1,236.35,250.85Z"/><path class="cls-7" d="M28.32,130a.8.8,0,0,1-.42-.11l-13.29-7.63a.84.84,0,0,1,.84-1.46l13.29,7.63a.84.84,0,0,1,.32,1.15A.86.86,0,0,1,28.32,130Z"/><path class="cls-5" d="M236.35,250.85a.85.85,0,0,1-.42-1.58l99.35-57.73a.84.84,0,1,1,.84,1.46l-99.35,57.73A.81.81,0,0,1,236.35,250.85Z"/><path class="cls-7" d="M169.59,211.28a.83.83,0,0,1-.42-.11L69.38,153.74a.85.85,0,1,1,.85-1.47L170,209.71a.84.84,0,0,1-.43,1.57Z"/><path class="cls-7" d="M125.59,153.45a.86.86,0,0,1-.43-.11l-8-4.76a.86.86,0,0,1-.3-1.16.85.85,0,0,1,1.16-.29l8,4.75a.85.85,0,0,1,.29,1.16A.86.86,0,0,1,125.59,153.45Z"/><polygon class="cls-16" points="181.33 112.97 172.82 155.69 175.28 164.35 192.38 154.46 198.17 115.16 198.17 151.29 216.88 140.29 225.1 87.54 214.47 93.71 212.52 114.47 211.53 95.42 181.33 112.97"/><polygon class="cls-16" points="265.32 112.27 250.36 120.92 255.88 78.27 265.32 112.27"/><polygon class="cls-8" points="131.87 114.57 125.83 121.69 122.24 139.03 129.25 143.1 141.61 128.14 131.92 144.66 137.44 147.87 151.91 129.92 150.52 125.06 139.75 118.98 130.17 128 137.25 117.6 131.87 114.57"/><polygon class="cls-6" points="185.23 63.1 117.23 26.23 17.91 83.96 111.41 134.69 112.34 131.22 21.68 83.96 117.45 28.34 183.21 64.28 185.23 63.1"/><path class="cls-5" d="M68.68,66.19h0a5,5,0,0,1,2.49-4.3h0a2.66,2.66,0,0,1,4,2.31h0a5,5,0,0,1-2.48,4.31h0A2.67,2.67,0,0,1,68.68,66.19Z"/><g class="cls-17"><g class="cls-2"><polygon class="cls-18" points="187.46 47.34 158.28 73.55 112.96 56.55 142.15 30.36 187.46 47.34"/><polygon class="cls-19" points="187.46 47.34 187.35 87.29 158.16 113.5 158.28 73.55 187.46 47.34"/><polygon class="cls-20" points="158.28 73.55 158.16 113.5 112.85 96.5 112.96 56.55 158.28 73.55"/><polygon class="cls-19" points="121.32 92.28 121.31 97.13 115.81 95.07 115.82 90.22 121.32 92.28"/><polygon class="cls-19" points="128.22 94.65 128.2 99.51 122.7 97.44 122.71 92.59 128.22 94.65"/></g><g class="cls-21"><polygon class="cls-12" points="176.89 56.84 180.08 69.59 158.28 74.57 149.84 86.85 126.17 67.76 126.32 61.56 176.89 56.84"/></g><g class="cls-2"><polygon class="cls-18" points="153.8 9.55 176.98 25.24 149.95 38.61 126.8 22.92 153.8 9.55"/><polygon class="cls-19" points="176.98 25.24 176.87 65.19 149.84 78.56 149.95 38.61 176.98 25.24"/><polygon class="cls-20" points="157.76 68.67 157.74 71.51 152.5 74.1 152.53 71.26 157.76 68.67"/><polygon class="cls-20" points="175.44 28.73 175.42 31.57 170.18 34.16 170.21 31.32 175.44 28.73"/><polygon class="cls-20" points="168.67 32.1 168.65 34.94 163.41 37.53 163.43 34.69 168.67 32.1"/><polygon class="cls-20" points="149.95 38.61 149.84 78.56 126.69 62.87 126.8 22.92 149.95 38.61"/></g><g class="cls-2"><polygon class="cls-18" points="138.44 83.71 110.65 103.72 76.02 87.55 103.84 67.54 138.44 83.71"/><polygon class="cls-19" points="138.44 83.71 138.32 125.08 110.53 145.08 110.65 103.72 138.44 83.71"/><polygon class="cls-20" points="110.65 103.72 110.53 145.08 75.91 128.92 76.02 87.55 110.65 103.72"/><polygon class="cls-19" points="87.5 95.91 87.48 101.46 78.68 97.6 78.7 92.06 87.5 95.91"/></g><polygon class="cls-20" points="139.8 30.27 139.53 29.71 163.99 17.9 164.25 18.45 139.8 30.27"/><rect class="cls-20" x="91.49" y="85.2" width="31.49" height="0.85" transform="translate(-29.97 82.97) rotate(-37.5)"/></g></g></g></svg>